<?xml version="1.0" encoding="utf-8"?>
<!-- Generator: Adobe Illustrator 23.1.0, SVG Export Plug-In . SVG Version: 6.00 Build 0)  -->
<svg version="1.1" id="Layer_1" xmlns="http://www.w3.org/2000/svg" xmlns:xlink="http://www.w3.org/1999/xlink" x="0px" y="0px"
	 viewBox="0 0 1000 1000" style="enable-background:new 0 0 1000 1000;" xml:space="preserve">
<style type="text/css">
	.st0{fill:#EA4C89;stroke:#FFFFFF;stroke-miterlimit:10;}
</style>
<g>
	<g>
		<path class="st0" d="M251,198.6c-1.2-26.7,14.6-36.8,32.9-45c3.7-1.6,7.4-3.2,11.1-4.7l-19.8-11.4
			C205.4,167.1,147.8,219,103.4,295v41.6c25.1-56.4,61.4-105.3,104.9-137.5c14.8-10.9,28.2-11,42.4-0.4c0-0.1,0-0.1,0-0.2
			C250.8,198.5,250.9,198.6,251,198.6z"/>
		<path class="st0" d="M224.6,108.4L113.2,44c-4.3-2.5-9.8,0.6-9.8,5.7V214C138.2,168.2,178.9,133.4,224.6,108.4z"/>
		<path class="st0" d="M250.7,198.5c0,0,0,0.1,0.1,0.1L250.7,198.5z"/>
		<path class="st0" d="M223.1,884.3c15-36.6,28.9-73.5,38.1-112.8c13.7-58.1,5.8-115.2-1.1-172.9c-7-59.3-9.9-118.9,22.5-171.7
			c3.8-6.2,7.9-12.2,12.4-17.6c6.8-8.2,15.1-11,23.7-4.3c8.9,6.9,9.8,17.7,3.9,26.6c-40,61.2-29.6,131.3-21.3,197.6
			c10.5,84.5-5.7,161.1-31.3,236.3l43.6-25.2c16.3-54.9,23.5-112,20.6-171.4c-2.3-46.6-10-92.9-11.9-139.5
			c-2.6-63.1,25.8-102.6,74.4-109c41.7-5.4,77.9,28.9,89.1,86.6c6.7,34.5,10.7,69.7,9.6,105.4c0,12.7,0.3,25.3-0.1,37.9
			c-0.4,15,1.3,34.1-16.7,35.3c-19.5,1.3-21.5-18.6-22.4-35c-1.5-29-1.2-58.1-1.7-87.2c-0.3-20.3-0.8-40.4-7-59.8
			c-8.7-27.6-23.6-47.8-50.9-42.8c-27.7,5-41.6,27-39.5,59.7c2.9,46.6,5.3,93.3,10.6,139.6c6.2,54.9-0.6,106.5-13.4,156.6l28.1-16.2
			c23-84,17.2-168.7,6.3-253.9c-2.4-18.7-15.6-49.1,12.1-53.5c26-4.1,23.3,28.9,25.8,47.9c5.6,42.3,7.7,85.2,11.2,127.8
			c0,36.2-5,71.5-11.5,106.3l28.8-16.7c0.3-3.4,0.6-6.8,0.9-10.2c0.9-11.7,4.4-23.8,17.2-22.9c8.6,0.6,12.5,6.7,14.3,14.4l31.7-18.3
			c3.2-58.7,2.5-117.7,1-176.9c-0.6-23-3.9-45.3-11.1-66.7c-20.3-60.7-65.6-88.1-130.7-79.9c-12.4,1.6-29,10.2-32.6-11.7
			c-3.2-19.4,13.1-23.7,25.6-28.1c73.7-26.1,154.1,28.5,175.6,119.3c3.2,13.4,5.2,27.1,7,40.9c4.9,37.5,9,75.2,7.4,113.3
			c-0.5,22.5-1.5,44.8-2.9,67.1l27.2-15.7c1.3-69.3-4.7-138-16.3-206.5c-1-6.2-2.3-12.4-2.8-18.7c-1.1-12.1,0.5-23.9,11.9-28
			c13.7-4.9,20.2,6.2,24.5,18.5c12.5,35.8,14.1,73.9,16.7,111.6c1.8,26.4,0.3,53.1,0.3,79.6c0.2,7.8,0.3,15.6,0.3,23.4l25.5-14.7
			c-0.2-12.8-0.5-25.5-1-38.3c-1.6-42.8-5.7-85.6-10.1-128.2c-8.5-81.8-45.1-143.7-104.3-188.6c-3.7-2.8-7.4-5.4-11-8.4
			c-4.3-3.6-8.1-7.6-10.3-12.2L473.4,252c-4.1,3.6-9.5,5-15.5,4.7c-20.8-1-41.5-4-62.2-4.3C258,249.8,148.2,406.1,171.9,554.2
			c11.3,70.8,18.5,142.5,0.2,213.7c-4.3,16.9-9.3,33.7-15.2,50c-5.1,14.2-11.9,29.9-28.9,21.2c-14.4-7.4-11.6-22.5-7.3-36.1
			c25-78,24.6-156.2,13.3-238.3c-25.6-185.7,96.6-351.1,259-359L347,179c-16.5,3.4-32.9,8.8-49.1,16.4c-15.6,7.3-30.7,13.4-46.9,3.2
			c0,0.1,0,0.2,0,0.3l0,0c-0.1-0.1-0.2-0.1-0.3-0.2c-1.4,21.4-15.1,32.2-28,44C127.6,330.1,92,443.6,110,581.3
			c6.9,52.6,7.5,105.6-2.4,158c-1.2,6.2-2.2,13.5-4.2,19.7v191.4c0,5,5.4,8.2,9.8,5.7l106.6-61.5
			C220.5,891.2,221.7,887.8,223.1,884.3z M408.7,280.1c56.2-2.9,106.1,24.9,147.1,75.4c11.3,13.8,31.9,30.3,13.6,50.3
			c-17.6,19.1-29.9-6-39.3-19.1c-77.7-109.4-252-80.6-292.8,77c-9.9,38.3-8.5,77.6,0.5,116.1c8.5,36.1,9.4,72.4,3.6,108.9
			c-2.1,12.8-6.5,26.1-20.6,24.4c-13.7-1.7-18.2-15.8-15.9-28.5c9-50.3-5.6-97.1-12.2-145.6C174.6,405.4,278.6,279.5,408.7,280.1z
			 M174.4,883c-6.8-3.1-10.8-10.2-9.8-17.8c4.4-35.2,16.4-67.2,33.2-96.8c2.5-4.4,9.1-5.7,11.8-7.4c12.9,1.6,20.1,9.1,18.3,20.1
			c-6,34.7-18,67-36,95.9C188,883.3,181.4,886.1,174.4,883z"/>
		<path class="st0" d="M893.2,494.4l-94.9-54.8c2.8,19.1,4.2,38.2,4,57.2c-0.4,10.4-2.6,27-19.1,28.9c-18.7,2.2-23.5-14.4-25-32.1
			c-2.5-29.9-6.7-58-12.7-84.4l-21-12.1c12.2,47.2,16.1,97.3,14.2,149.7c-0.1,3.8-0.2,7.7-1.1,11.3c-4.1,16.2-3.4,40.2-25.2,36
			c-19.6-3.8-14.6-25.6-13.1-40.9c7.1-69.4-3.6-132.1-25.7-185.6l-47-27.2c4.3,7.2,8.4,14.6,12.3,22.3c24.7,47.7,36,100.5,40.2,155
			c2.7,35,4.1,70.2,5.6,108.4l208.6-120.4C897.5,503.1,897.5,496.9,893.2,494.4z"/>
	</g>
</g>
</svg>
