<?xml version="1.0" encoding="utf-8"?>
<!-- Generator: Adobe Illustrator 23.1.0, SVG Export Plug-In . SVG Version: 6.00 Build 0)  -->
<svg version="1.1" id="Layer_1" xmlns="http://www.w3.org/2000/svg" xmlns:xlink="http://www.w3.org/1999/xlink" x="0px" y="0px"
	 viewBox="0 0 2353 845" style="enable-background:new 0 0 2353 845;" xml:space="preserve">
<style type="text/css">
	.st0{fill:#EA4C89;}
	.st1{fill:#FFFFFF;}
</style>
<g>
	<g>
		<path class="st0" d="M1287.4,227.3c-0.3,2,0.3,3.5,1.7,4.6c2,1.4,3.1,2.7,3.4,3.8c-1.7,1.7-2.5,3.8-2.5,6.3c0,1.1,1.1,2.3,3.4,3.4
			c2.2,1.1,3.4,3.2,3.4,6.3c0,1.1,0,2.3,0,3.4c0,1.1-0.2,2.3-0.4,3.4c-0.3,1.1-0.5,2.3-0.6,3.6c-0.1,1.3-0.2,2.5-0.2,3.6
			c0,3.4,1,6,2.9,8c-0.3,1.4-0.5,2.9-0.6,4.6h18c0.2-3.3,0.3-6.6,0.3-10c0-9.8-2-18.9-5.9-27.1c-3.9-8.3-9.1-15.9-15.6-22.9
			c-0.8-0.8-1.8-1.6-2.9-2.3s-2.4-1.1-3.8-1.1c-3.4,0-5.1,1.5-5.1,4.6c0,1.4,0.5,2.9,1.5,4.6
			C1285.3,225.6,1286.3,226.7,1287.4,227.3z"/>
		<path class="st0" d="M1264.2,377.5c-0.1,0.1-0.1,0.3-0.2,0.4c-1,2.5-1.6,3.8-1.9,3.8c-2,0.6-4,2.6-6.1,6.1s-3.9,7.2-5.3,11.1
			s-2.1,6.9-2.1,8.8l-21,31.1c-4.5,6.5-9.6,12.8-15.4,19.1s-11.3,12.3-16.6,17.9c-0.6,0.6-1.3,1.3-2.3,2.3s-2.2,2-3.6,3.2
			c-2.5,2.5-4.2,4.6-5.1,6.3c-0.3,0.6-0.6,1.5-1.1,2.7s-0.6,2.2-0.6,2.7v0.4c0.6,0,2.7-2,6.3-5.9c3.6-3.9,7.8-8.5,12.4-13.7
			s8.9-9.7,12.8-13.7c3.9-3.9,6.4-5.9,7.6-5.9c0.3,0,0.4,0.3,0.4,0.8c0,0.6-0.4,2-1.3,4.2c-0.8,2.3-1.5,3.6-2.1,4.2
			c-3.9,4.8-9.4,10.9-16.4,18.3s-14.8,15.2-23.3,23.4c-8.6,8.1-17.3,15.9-26.3,23.1c-9,7.3-17.5,13.3-25.7,17.9
			c-8.1,4.6-15.2,6.9-21,6.9c-4.8,0-8.5-1.7-11.2-5c-2.7-3.4-4.5-7.5-5.5-12.4s-1.5-9.6-1.5-14.1c0-9,1.2-18.9,3.6-29.7
			c2.4-10.8,5-20.5,7.8-29.2l2.5-7.6c0.8-2.5,1.3-5.2,1.3-8c0-0.6-0.1-1.3-0.2-2.3c-0.2-1-0.4-2-0.6-3.2c3.1-1.4,5.1-3.1,5.9-5v-1.7
			c-0.3-0.3-0.4-0.8-0.4-1.7l1.7,0.8l0.8-0.4c0-0.8,0.6-2.9,1.7-6.1s1.7-5.4,1.7-6.5c-0.3-0.6-0.4-1.5-0.4-2.9v-2.5
			c1.4,0,2.7-1.8,4-5.3s2.3-7.1,3.2-10.7c0.8-3.6,1.3-5.8,1.3-6.3c0-1.1-0.1-1.8-0.4-2.1v-0.8l2.5,0.8c0-3.9,1-7.7,2.9-11.4l4.2-4.2
			l4.2-3.8l0.8,1.7h-0.8c-2.3,4.8-4.5,9.7-6.7,14.7c-2.3,5-4.3,10.2-6.3,15.6c0.8-0.6,2.2-2.7,4.2-6.5s3.8-7.6,5.7-11.6
			c1.8-3.9,3-6.2,3.6-6.7c1.1-1.1,2.1-2,2.9-2.5l2.5-2.5l3.4-11.4c3.6-3.6,7.2-7.6,10.5-11.8h0.8c5.6-4.5,10.7-9.5,15.4-14.9
			s8.9-11,12.8-16.6c1.1,0,2.8-1.5,5.1-4.4c2.2-2.9,3.6-5,4.2-6.1c1.4-2.2,2.9-4.3,4.6-6.1c1.7-1.8,3.4-3.7,5.1-5.7s3.1-4.1,4.2-6.3
			c1.1-2.2,1.7-4.8,1.7-7.6v-6c0-0.6-0.1-1.1-0.2-1.7s-0.3-1.1-0.6-1.7c-0.6-1.7-1.8-3.2-3.8-4.6c-0.8-0.6-1.7-1.1-2.5-1.7
			s-1.5-1.1-2.1-1.7c-4.5-3.1-9.3-5.7-14.5-7.8c-5.2-2.1-10.6-3.2-16.2-3.2v0.8h-0.8l-0.8,1.3c-3.9,0.8-6.6,2.7-8,5.7
			s-2.6,6.3-3.6,10.1c-1,3.8-2.7,7.5-5.3,11.1l-11.8,16.4h-0.8v0.8c1.1-0.3,2.2-0.5,3.2-0.6s1.8-0.2,2.3-0.2v0.8l-5.5,5l0.4,3.8
			c-1.1,0.8-2.7,2.9-4.8,6.1c-2.1,3.2-4.2,6.8-6.3,10.7c-2.1,3.9-3.9,7.4-5.3,10.5s-2.1,4.9-2.1,5.5c-0.3,0-1.5,1.8-3.8,5.3
			s-4.6,7.6-7.2,12.2s-4.8,8.7-6.7,12.2c-2,3.5-3.1,5.4-3.4,5.7h-0.8v1.7l3.8-0.8v1.7l-14.3,29.9l-0.8,0.4h-0.8l0.8,0.4
			c-0.8,0.6-1.8,1.4-2.9,2.5c-0.6,0.8-1.4,1.8-2.5,2.9l-1.3-0.4c-0.8,1.1-1.8,2.1-2.7,3c-1,0.8-2,1.7-3.2,2.5l-0.4,1.3
			c-2.3,2-4.5,3.9-6.7,5.9c-2.3,2-4.5,3.9-6.7,5.9c-2.8,0.6-5.7,2.9-8.6,7.1s-5.7,7.6-8.2,10.1h-0.4c-1.1,2-3,4.4-5.7,7.4
			s-4.7,5.5-6.1,7.8c-0.3-0.3-0.7-0.1-1.3,0.4l-4.2,5c-0.6,1.1-1.3,2.1-2.1,2.9c-0.8,0.8-1.5,1.7-2.1,2.5h-0.8l-0.4,1.7l0.4-0.4
			c0.6-0.6,0.2-0.1-1,1.3c-1.3,1.4-2.2,2.5-2.7,3.4c-0.6,0.8-1.2,1.7-1.9,2.5s-1.3,1.5-1.9,2.1v-0.8l-3.4,4.2h-0.8l-0.4,0.4
			c0,0.3,0.1,0.6,0.4,0.8l-5,6.7c-1.1,2-2.8,3.8-5,5.5c-1.1,1.1-2.1,2.1-3,2.9c-0.8,0.8-1.5,1.8-2.1,3l-4.2,5
			c-1.4,2-2.5,3.9-3.4,5.9l-1.7-1.7c-0.8,2.8-3.3,6.3-7.4,10.3c-4.1,4.1-8.8,8.1-14.3,12s-10.8,7.2-16,9.7s-9.3,3.8-12.4,3.8
			c0.3-2.2,0.3-4.6,0.2-7.2c-0.1-2.5-0.3-5-0.6-7.6c-0.8-4.8-1.3-9.5-1.3-14.3c0-6.2,1.3-13,3.8-20.4s5.3-13.8,8.4-19.1l-3.8-8
			c0-1.4,0.6-2,1.7-1.7c4.8-4.8,8.5-9.7,11.2-14.9c2.7-5.2,5.1-11,7.4-17.5c2-5.6,3.3-10,4-13c0.7-3.1,1.8-6.1,3.4-9
			c1.5-2.9,4.3-6.7,8.2-11.1l0.8-10.9l7.2-9.7l0.8-4.6c3.1-4.8,5.6-10,7.6-15.6l1.7,1.7l8.8-14.3l2.5-1.3c-0.3,0-0.4-0.1-0.4-0.4
			c0-0.6,0.8-1.4,2.5-2.5c0.6-0.6,1.1-1,1.7-1.5s1-0.8,1.3-1v-0.8c0-1.7-1-2.7-3-2.9v-1.3c3.4,0,5.5-1.3,6.3-4s1.5-5.7,1.9-9
			c0.4-3.4,1.6-6,3.6-8l3.4-10.5c2,0,3.8-2.2,5.5-6.5c1.7-4.4,3.4-7.4,5.1-9c0.3-0.8,0.4-2.4,0.4-4.6c0-2-0.1-4-0.2-6.1
			c-0.2-2.1-0.3-4.1-0.6-6.1s-0.5-3.9-0.6-5.9c-0.2-2-0.2-3.9-0.2-5.9v-3.4c0-0.6,0.1-1.1,0.2-1.7s0.3-1.1,0.6-1.7l-2.9-5.9
			c-4.5-9-11.2-15.4-20.2-19.4c-9-3.9-18.2-5.9-27.8-5.9c-2,0-3.6,0.1-4.8,0.2c-1.3,0.1-2.9,0.6-4.8,1.5l0.4,1.3
			c-3.7,0.6-7.4,1.3-11.2,2.1s-7.2,2.4-10.3,4.6c-3.7,0.6-7.4,1.7-11.2,3.4s-7.1,3.8-9.9,6.3l-4.2,0.4c0.3,0,0.4,0.1,0.4,0.4
			c0,0.6-1.4,1.4-4.2,2.5c-2.5,1.4-4.2,2.5-5,3.4c-3.7,0.3-7.3,1.8-10.9,4.6l-10.1,7.6v-1.3c-1.1,0.3-2.3,1-3.4,2.1
			c-1.1,1.7-2.3,2.5-3.4,2.5h-0.4c0,0.3,0.3,0.7,0.8,1.3v2.5l-5.5-1.7l-1.3-1.3c0,1.4-2.3,3.5-6.7,6.3c-4.5,2.8-9,5.4-13.7,7.8
			c-4.6,2.4-7.5,3.9-8.6,4.4c-0.3,1.1-0.6,2.2-0.8,3.2c-0.3,1-0.7,2.2-1.3,3.6c-5,0.8-8.6,3.1-10.5,6.7v1.3H841
			c-0.3,0-0.6,0.1-0.8,0.4l-0.8,0.8l-1.3,0.8c-2,1.1-3.8,2.5-5.5,4.2s-3.4,3.4-5,5c-2.3,2-4.5,3.9-6.7,5.9c-2.3,2-4.5,4.1-6.7,6.3
			c-2.3,2-4.6,4-6.9,6.1c-2.4,2.1-4.7,4.1-6.9,6.1v1.3l-1.3,0.4c0,0.8,0.7,1.3,2.1,1.3c0.6,0,1.2-0.1,1.9-0.2s1.6-0.4,2.7-0.6v2.5
			l-11.4,13.5l-2.5-2.5l-2.9,0.4l-1.3,1.7l0.8,9.3l-5.5,4.6l-1.3,0.8l0.4,1.7h1.3l2.5-3V375l1.3-0.4v1.3c-0.8,0-1.3,0.4-1.3,1.3v1.7
			l1.7,1.3h-2.9c0.6,1.4,0,2.1-1.7,2.1l-3.4,1.3v1.3c-0.6,0.6-0.8,1-0.8,1.3c0,1.4,0.3,3.2,1,5.3s1.3,3.9,1.9,5.3h-1.3l-1.7-3.4
			c-0.6,0-0.8,0.3-0.8,0.8c0,2.3,0.8,4.5,2.5,6.7l-1.7,1.3c-0.6,0.3-1.3,0.8-2.1,1.7c0.6,4.8,2.9,8.1,7.2,10.1
			c4.2,2,8.4,2.9,12.6,2.9h2.9v-1.3c-3.7,0.6-6.3-0.4-7.8-3c-1.5-2.5-2.3-5.3-2.3-8.4c0-3.9,0.9-8.1,2.7-12.4s4.4-7.5,7.8-9.5
			c0-0.8-0.6-1.3-1.7-1.3c-0.3,0-0.8,0.1-1.5,0.2s-1.5,0.4-2.3,0.6v-2.9h1.3l10.1-12.6l9.7-12.2l2.9-0.4l-0.4-2.9l-3.8,2.1v-1.3
			h-1.3l-0.4-2.5c2-0.6,4.6-1.6,8-3.2c3.4-1.5,6.6-3.4,9.7-5.5c3.1-2.1,5-3.9,5.9-5.3l-2.5,0.4c0.8-0.6,1.7-1.3,2.5-2.1
			s1.8-1.5,2.9-2.1l5-3.8c1.4-1.1,2.9-2.3,4.4-3.6c1.5-1.3,3-2.5,4.4-3.6l8.8-6.7c6.7-5,15.8-11,27.3-17.9s23.8-13.7,37-20.4
			c13.2-6.7,25.9-12.3,38.1-16.6s22.4-6.5,30.5-6.5c5.3,0,9.4,1.2,12.2,3.6c2.8,2.4,4.2,6.4,4.2,12c0,5-1.1,10.1-3.4,15.1
			s-4.7,10-7.4,14.9s-4.6,10-5.7,15.4c-0.3,0-1.5,1.9-3.8,5.7c-2.3,3.8-4.7,8.2-7.4,13.3c-2.7,5-5.1,9.6-7.4,13.7
			c-2.3,4.1-3.8,6.4-4.6,6.9l-0.4,1.3c-0.3,0-0.4,0.1-0.4,0.4c0,0.6,0.1,1.3,0.4,2.1c0.3,0.8,0.6,1.5,0.8,2.1
			c-0.3,0.8-1.3,2.3-3.2,4.4c-1.8,2.1-3,3.4-3.6,4l-0.8,4.2l0.4,2.1c-0.8,2-2.5,5.3-4.8,9.9c-2.4,4.6-4.8,9-7.2,13.3
			c-2.4,4.2-3.9,6.6-4.4,7.1l-1.3,9.7c-1.4,2.8-3.6,6.5-6.5,10.9c-3,4.5-4.4,8-4.4,10.5c0,1.4,0.4,2.5,1.3,3.4
			c0.6,1.7,0.8,3,0.8,3.8c0,0.3-0.3,1.3-0.8,2.9l-6.7,4.2c0.6-0.6,0.4-0.8-0.4-0.8c-0.6,0-1,0.1-1.3,0.4s-0.8,0.4-1.7,0.4H926
			l-3.8,11.4c-1.1,3.6-3.4,7.1-6.7,10.5l2.1,2.5c-2,5.3-4.3,11.6-7.2,18.9c-2.8,7.3-5.3,14.4-7.6,21.3c-2.3,6.9-3.4,12.4-3.4,16.6
			c0,5.9,1.3,11.9,3.8,18.1c2.5,6.2,6.1,11.4,10.7,15.6s10,6.3,16.2,6.3c7.3,0,12.9-0.5,16.8-1.5s7.3-3,10.1-6.1s5.9-7.8,9.3-14.3
			l0.8,5.5h1.3l12.2-19.3h5c0.6-2.8,1.5-5.5,2.7-8s3.3-4.5,6.1-5.9c0.6-0.6,0.8-1.3,0.8-2.1c0-0.3-0.3-1.3-0.8-3l0.8-0.4
			c1.4,1.4,2.5,2,3.4,1.7l0.8-6.7c2.8-3.1,5.5-6,8.2-8.8s5.5-5.5,8.6-8l0.4-1.3h2.1v1.7l1.7-0.4l0.4-1.3h0.8l-0.8-4.2h-0.8
			c0.3-0.3,1.2-1.4,2.7-3.4c1.5-2,3.2-4.1,5-6.3c1.8-2.2,3-3.6,3.6-4.2c0.3-0.8,1-1.8,2.1-2.9c0.3-0.6,0.6-1,0.8-1.5
			c0.3-0.4,0.6-0.9,0.8-1.5v0.4l2.5-1.3l-0.8-1.3l0.8-1.3h2.9l1.3-1.7l0.4-3.8l10.9-8.8c1.7-1.4,3.4-2.9,5.1-4.4s3.2-3.2,4.6-4.8
			h-0.4l0.8-2.1l0.4,1.3c0.6-0.6,1.4-1.5,2.5-2.9s1.8-2.4,2.1-3h-2.5l-1.7,1.3l0.8-2.5h1.3l0.4-1.7h2.9l-0.4,1.7l6.3-6.7
			c1.1-1.1,2.2-2.1,3.2-3c1-0.8,2-1.7,3.2-2.5l-4.6,9.3l-0.8,0.4l1.7,2.5v0.8l-5.5,0.8l1.3,7.1h-0.8v-1.7l-0.8,0.8
			c-0.3,0.8-0.4,2-0.4,3.4c-0.3,0.6-0.4,1.2-0.4,1.9c0,0.7-0.1,1.3-0.4,1.9l-0.8,0.4l4.2,0.8c-3.9,10.1-7.5,20.5-10.7,31.3
			s-4.8,21.7-4.8,32.6c0,14.6,3.4,26.8,10.1,36.6s17.8,14.7,33.2,14.7c5.3,0,11.8-1.4,19.3-4.2c7.6-2.8,15.4-6.3,23.6-10.5
			c8.1-4.2,15.6-8.7,22.5-13.5s12.1-9.1,15.8-13c7.3-7.3,14.4-14.8,21.5-22.5c7-7.7,14-15.5,21-23.4c1.7-0.6,2.7-1.7,2.9-3.4
			l3.8-4.6c5.3-0.8,8-4.1,8-9.7l0.8-0.4h4.6c1.4,0.6,2.1-0.7,2.1-3.8c0-0.6-0.1-1.2-0.2-1.9s-0.3-1.5-0.6-2.3l3.8-4.6
			c1.4,0.3,2.8,0.2,4.2-0.2c1.4-0.4,2.1-1.3,2.1-2.7v-1.3c-0.3,0-0.4-0.1-0.4-0.4c1.1-0.8,1.8-1.8,1.9-2.7c0.1-1,0.2-2,0.2-3.2
			c0.8-0.8,1.4-1.5,1.7-2.1l1.3-1.7l4.2-4.2c0.6-0.6,1.3-1.2,2.1-1.9s1.5-1.5,2.1-2.3c4.8-6.2,8.6-12.6,11.4-19.4l8.8-20.6
			c3-1.6,5-3.8,6.2-6.7L1264.2,377.5L1264.2,377.5z M1145.6,351c1.1-2.2,2.1-4.5,2.9-6.7l0.4-1.3v1.3c1.4-4.5,3-8.5,4.8-12.2
			c1.8-3.6,3.8-7.4,6.1-11.4c1.7-3.1,4.7-6.3,9.1-9.7c4.3-3.4,9-6.7,13.9-9.9c4.9-3.2,9.1-6.1,12.4-8.6c0,0.3-0.4,1.4-1.3,3.4
			c-0.8,2-1.7,3.9-2.5,5.9s-1.3,3.1-1.3,3.4s0.1,0.4,0.4,0.4v0.4c-0.8,0.6-2.9,2.7-6.1,6.3c-3.2,3.6-6.8,7.9-10.7,12.8
			c-3.9,4.9-7.4,9.3-10.5,13.3c-3.1,3.9-4.9,6.5-5.5,7.6c-1.1,0.3-3.5,2.1-7.2,5.5l-7.6,6.7C1143.7,355.6,1144.5,353.2,1145.6,351z
			 M1136,364h1.3l-2.5,2.1C1135,365.3,1135.4,364.6,1136,364z M1029.5,275.9c0.6-0.7,1-1.3,1.3-1.9h0.8l-2.5,2.5
			C1028.8,276.8,1028.9,276.6,1029.5,275.9z M786.3,398.1c-0.3,0-0.7-0.4-1.3-1.3c-0.8-1.7-1.1-2.4-0.8-2.1l1.7,1.7l1.3,1.7
			L786.3,398.1L786.3,398.1z M797.7,369c-0.3,0.3-1.3,0.4-2.9,0.4c0,0.6,0.1,1,0.4,1.3c-0.3,0.3-1,0.4-2.1,0.4h-0.8
			c0-1.1,0.4-1.8,1.3-2.1s1.7-0.6,2.5-0.8V367l1.3-0.4c0,0.6,0.1,1,0.4,1.3v1.1H797.7z M809.9,355.6c-0.3,0.3-0.4,0.6-0.4,0.8
			c0,0.3-0.1,0.6-0.4,0.8V356h-1.7v-1.3c0.8,0,1.4-0.1,1.7-0.4h1.3C810,354.6,809.9,355,809.9,355.6z M824.2,339.2l1.3-2.5
			c0.6,0,1-0.1,1.3-0.4C826.5,336.8,825.6,337.8,824.2,339.2z M1017.7,326.1h0.4l-0.4,2.5h-1.7L1017.7,326.1z M1011,340
			c0-0.3,0.1-0.6,0.4-0.8c0-0.8,0.3-1.3,0.8-1.3h1.3l0.4-1.3h2.1l-3.8,3.8l-0.4,1.3h-0.4c-0.3,0-0.4-0.1-0.4-0.4L1011,340L1011,340z
			"/>
		<g>
			<path class="st0" d="M1358.1,579c-2.8-3.4-5.7-6-8.6-7.8s-5.5-3.9-7.6-6.3s-3.2-5.7-3.2-9.9h0.8l-1.3-6.3l-1.3,1.3l-0.8,1.3
				c0.3-1.1,0.6-2.2,0.8-3.2c0.3-1,0.6-1.9,0.8-2.7c0.3-1.4,0.5-2.7,0.6-4s0.2-2.6,0.2-4c0-3.6,0.3-7.2,0.8-10.7
				c0.6-3.5,1.3-6.9,2.1-10.3s1.6-6.8,2.3-10.3c0.7-3.5,1.3-7.2,1.9-11.1h0.8l4.6-10.9l-0.4-2.1c-0.6,1.1-1,1.8-1.3,2.1
				c-0.3,0.6-0.7,1.1-1.3,1.7c-3.1,4.5-6.9,9.9-11.4,16.2c-4.5,6.3-9,12.2-13.5,17.7s-8.6,9.3-12.2,11.6c-2.3,1.4-3.8,2.5-4.6,3.2
				c-0.8,0.7-1.8,2.5-2.9,5.3c-2.8,0.6-5.5,2.4-8.2,5.5s-5.3,6-7.8,8.8s-5.3,4.3-8.4,4.6l-0.4,2.1c-1.7,1.7-3.9,2.9-6.7,3.6
				c-2.8,0.7-5.3,1.2-7.6,1.5c-6.2-2.2-12.2-5.3-18.1-9.3s-8.8-9.4-8.8-16.4c0-2.8,0.4-5.2,1.3-7.2h0.4v-2.1c-0.6-0.8-0.7-2-0.4-3.4
				c0.3-1.4,0.7-2.1,1.3-2.1l0.4,0.4c0.6-0.8,0.9-2.2,1.1-4.2c0.1-2,0.2-3.2,0.2-3.8l0.8-0.8c0-2,1-4.1,2.9-6.3
				c2-2.2,3.8-4.3,5.7-6.3c1.8-2,2.7-3.4,2.7-4.2c0.3-0.3,0.4-0.7,0.4-1.3c0-1.4-0.1-2.5-0.4-3.4c-0.6-1.1-0.7-2.1-0.4-2.9v-1.7h1.7
				l1.3-2.1V488c-0.8-0.6-1.3-1-1.3-1.3v-0.8c0-0.8,0.3-1.5,0.8-2.1l1.3-1.3v-0.4c0-0.3,0.1-0.6,0.4-0.8v-0.8l2.1-2.1
				c1.1-1.1,2-1.8,2.5-2.1c2.2-3.1,4.1-5.9,5.5-8.4h1.7l0.4,0.4c-0.3-0.6-0.5-1-0.6-1.3c-0.2-0.3-0.2-0.6-0.2-0.8
				c0-2.2,1.9-5.5,5.7-9.7s8.3-8.8,13.7-13.7c5.3-4.9,10.5-9.5,15.6-13.9c5.1-4.3,9-7.8,11.8-10.3v-2.1h0.8c1.1-0.6,2.3-1.4,3.6-2.5
				c1.3-1.1,2.6-2.2,4-3.4c2.8-2.8,5.2-4.4,7.2-4.6l0.8-2.1l2.5-0.4c0.3-0.3,0.6-0.6,0.8-0.8c0.3-0.3,0.6-0.6,0.8-0.8
				c0.6-0.3,1-0.4,1.3-0.4s0.6-0.1,0.8-0.4l0.4-0.4l0.8-0.4v-0.4c0-0.3,0.1-0.6,0.4-0.8l7.6-2.9l0.8,0.4l5.9-2.5l1.3-1.3h0.4
				l5.5-0.4l2.9-1.7l0.8-0.8v0.4l0.4-0.4l0.8,0.8c2.5-1.1,5.1-1.7,7.6-1.7s5.9,0.4,10.1,1.3s8.1,2.2,11.8,4c3.6,1.8,5.8,4.3,6.3,7.4
				v0.8l-8.8,5c0.6-1.4,1-2.2,1.3-2.5v-1c0-0.6-0.6-0.8-1.7-0.8h-2.5c-5.9,0-11.3,1.7-16.2,5c-4.9,3.4-9.6,6.7-14.1,10.1
				c-2.5,0.6-5.2,2.3-8,5c-2.8,2.8-5.3,4.9-7.6,6.3c-10.9,8.4-20.8,16.8-29.7,25c-8.8,8.3-17.2,18.2-25,29.7
				c-1.4,2.3-3.2,5.1-5.5,8.6s-4.2,6-5.9,7.4c-1.4,2.5-2.8,5-4.2,7.6c-1.4,2.5-2.7,5.2-3.8,8c-1.1,2.8-2.4,5.5-3.8,8
				s-2.8,4.9-4.2,7.2c0,3.4-0.4,6.6-1.3,9.7c-0.6,1.7-0.8,3.1-0.8,4.2c-0.3,0.8-0.4,1.7-0.4,2.5s-0.2,1.5-0.4,2.1l1.7,3.8
				c3.4-1.4,7.4-3.2,12.2-5.5c4.8-2.2,7.2-4.8,7.2-7.6l2.5-0.8h0.8v-0.8c0.6-0.6,1-0.8,1.3-0.8h1.3l1.3-1.7V534l1.7,1.7l5.5-5.5
				c0-1.4,1-2.2,2.9-2.5c4.8-3.9,9-8.5,12.6-13.9c2-2.8,3.9-5.5,5.9-8s4.1-4.9,6.3-7.1h0.8l5.5-6.7l-0.4-1.7l5.9-7.6h0.8
				c0.6-1.7,1.4-3.4,2.5-5l1.3,0.8l3.4-4.6l-0.4-0.4c1.4-2.2,2.9-4.5,4.6-6.7s3.4-4.3,5.1-6.3c1.7-2.2,3.3-4.5,4.8-6.7
				s3-4.5,4.4-6.7c0-2,0.7-3.8,2.1-5.5s3.2-2.5,5.5-2.5l2.9,0.8c1.1-2,1.7-5,1.7-9.3c1.4,0.3,2.5,0,3.4-0.8l2.5-0.8v0.8l3.4,1.3
				c1.1-0.6,2-0.8,2.5-0.8c2.2,0,4.5,0.6,6.7,1.9s4.2,2.6,5.9,4c0,0.6,0.1,0.7,0.4,0.4c0-0.3,0.1-0.4,0.4-0.4h2.1
				c3.6,0,5.5,1.5,5.5,4.6v1.3c-1.4,2-2.7,3.9-4,5.9s-2.5,3.9-3.6,5.9c-2.3,3.9-5.3,7.4-9.3,10.5v0.8l-6.7,9.7l0.8,1.7l-14.3,17.7
				l-1.3,0.4c-0.6,2-1.2,3.9-1.9,5.7c-0.7,1.8-1.5,3.7-2.3,5.7l-3.8,1.3c0.6,0.6,0.8,1.3,0.8,2.1c0,1.1,0.1,1.8,0.4,2.1
				c-2.3,4.2-4.1,8.4-5.7,12.6s-2,8.7-1.5,13.5c-0.8,0.6-1.3,1.3-1.5,2.3c-0.1,1-0.2,1.9-0.2,2.7c0,1.4,0.1,2.7,0.2,4s0.3,2.6,0.6,4
				c0.3,1.4,0.6,2.8,0.8,4.2c0.3,1.4,0.6,2.8,0.8,4.2l4.6-2.5h1.3l0.4-0.4l0.8-1.3c0-0.8,0.4-1.8,1.3-3l0.8,3.4l3.8-1.7v1.7h0.4
				c1.1,0,2-0.8,2.5-2.5c0.6-0.6,1.3-1.2,2.1-1.9s1.8-1,2.9-1l0.4-0.8v-1.3c0-1.4,1-2.5,2.9-3.4c1.1-0.3,2-0.6,2.7-1
				s1.3-0.6,1.9-0.6h0.4l10.9-10.9h0.4c0.6-0.8,1.8-2,3.6-3.6c1.8-1.5,3.4-2.6,4.8-3.2v-2.9l2.9-0.8h0.4l9.7-13.5
				c0,0.3,0.3,0.4,0.8,0.4c0.6,0,1,0.1,1.3,0.4c0.3,0,0.8-0.5,1.5-1.5s1.1-1.8,1.1-2.3c0.3-0.3,0.6-0.6,1.1-1c0.4-0.4,1.2-0.8,2.3-1
				c0.8-0.6,1.5-0.9,2.1-1s1-0.4,1.3-0.6c-3.1,5.9-5.8,11.2-8.2,16c-2.4,4.8-4.7,9.5-6.9,14.3c-2.3,4.8-4.8,9.3-7.6,13.7
				c-2.8,4.3-6.3,8.6-10.5,12.8l-1.7-1.7l2.9-3.8l-0.4-2.5l-0.8,0.4v1.7l-2.9,3c-0.3,3.7-1.5,6.3-3.8,8h-1.7l-0.8-0.4v2.1l-2.5,3
				l-1.3-0.4l-5.1,7.2v-1.3l-0.8,0.4c-0.6,0.3-1.1,0.6-1.7,0.8c-0.6,0.3-1.1,0.6-1.7,0.8c-1.7,0.6-2.7,1.4-2.9,2.5L1358.1,579z
				 M1400.2,545.8c0-0.8,0.1-1.4,0.4-1.7l0.8-1.3l-1.7,0.4h0.4l-1.3,2.1l0.4-0.4L1400.2,545.8z"/>
			<path class="st0" d="M1414.1,708.6c-2,0-4.1-1.3-6.3-3.8c-1.7-2.5-3.4-4.9-5.1-7.2c-2-2.8-2.9-5.8-2.9-8.8
				c16-23.6,33.6-45.9,52.8-66.9c19.2-21,39.3-40.8,60.4-59.3c7.3-14.9,14.5-29.5,21.7-44c7.2-14.4,14.4-29,21.7-43.5l-10.1,11.8
				c-3.4,4.2-6.9,8.1-10.5,11.8c-1.1,0.8-2.4,1.9-3.8,3.2c-1.4,1.3-2.8,2.6-4.2,4l-6.7,7.6c-1.1,1.1-2.1,2.4-2.9,3.8
				c-0.8,1.4-1.7,2.8-2.5,4.2s-2.4,2.9-4.6,4.6c-1.1,0.8-2.3,1.7-3.4,2.5s-2.4,1.8-3.8,3c-1.1,1.1-2.3,2.1-3.6,2.9
				c-1.3,0.8-2.5,1.7-3.6,2.5c-1.1,1.1-2.3,2-3.4,2.7s-2,1.3-2.5,1.9c-1.1,1.1-2.3,2.2-3.6,3.2c-1.3,1-2.6,2.2-4,3.6
				c-2.8,2.8-5.9,4.2-9.3,4.2c-5.1,0-8.8-2.7-11.2-8.2c-2.4-5.5-3.6-10.5-3.6-14.9c0-6.5,1.3-12.8,3.8-18.9c1.1-3.1,2.2-6.2,3.4-9.3
				c1.1-3.1,2.2-6.2,3.4-9.3l17.7-47.1c1.4-3.1,2.9-6.3,4.4-9.7c1.5-3.4,3.2-6.7,4.8-10.1c3.4-6.5,5.1-13.3,5.1-20.6
				c0-0.8,0.1-1.5,0.4-2.1c0-0.3-0.3-0.7-0.8-1.3c-1.4,1.4-3,2.7-4.8,4s-3.7,2.5-5.7,3.6c-3.7,2-7,4.8-10.1,8.4
				c-7.3,8.7-13.9,17.7-19.8,27.1s-11.6,18.9-17.3,28.4c-0.6,1.1-1.5,2.4-2.7,3.8c-1.3,1.4-2.6,2.1-4,2.1c-1.7,0-2.5-1-2.5-3
				c0-3.1,1.7-7.1,5.1-12s5.6-9.2,6.7-12.8c1.4-3.1,2.9-5.3,4.6-6.7c0.8-0.6,1.6-1.3,2.3-2.3c0.7-1,1.3-2,1.9-3.2
				c2.8-5.9,7-12.5,12.6-20c5.6-7.4,12-13.9,19.1-19.4s13.9-8.2,20.4-8.2c6.4,0,11.2,2.3,14.3,6.7c3.1,4.5,4.6,9.5,4.6,15.1
				s-0.7,11.3-2.1,17c-1.4,5.8-2.9,11.1-4.6,16.2c0.6,0.6,0.8,1.7,0.8,3.4c0,2.8-0.8,5.3-2.5,7.6c-2,2.3-3.1,4.6-3.4,7.1
				c-1.1,5.9-2.5,10.3-4.2,13.3s-3.9,6.8-6.7,11.6c0.6,1.4-0.3,4.5-2.5,9.3c-2.3,4.8-3.8,8.1-4.6,10.1c-0.8,2-1.5,3.8-2.1,5.5
				c-0.6,1.7-1.1,3.5-1.7,5.5v2.1c-0.3,0.6-0.4,1.3-0.4,2.1c0.8-0.6,1.6-1.1,2.3-1.7c0.7-0.6,1.2-1,1.5-1.3c0.8-0.8,1.8-1.5,2.7-2.1
				s2-1.1,3.2-1.7c0.3-0.3,0.6-0.4,0.8-0.4c0.3,0,0.6-0.1,0.8-0.4c0.3-2.8,1.8-4.2,4.6-4.2c0.6-0.3,1.1-0.6,1.7-1s1.1-0.8,1.7-1
				c1.1-1.1,2-1.8,2.5-2.1c1.1-2.8,2.7-4.8,4.6-5.9c0.8-0.6,1.8-1.2,2.7-1.9c1-0.7,2-1.3,3.2-1.9l13.9-14.3c1.1-1.4,2-2.7,2.7-4
				s1.2-2.3,1.5-3.2c0.6-1.4,2.9-3.2,7.2-5.5l2.1-2.9v-3c0-1.4,0.1-2.7,0.4-3.8c0.3-1.1,1.1-2,2.5-2.5c1.7-0.8,2.8-2.4,3.4-4.6
				c0.6-2.5,1.3-4.2,2.1-5l7.6-10.1c0.6-1.4,1-2.2,1.3-2.5l2.5-2.5v-0.4c0-0.6-0.2-1-0.4-1.3c-0.6-0.6-0.8-1.1-0.8-1.7
				c0-0.8,0.4-1.3,1.3-1.3l1.7-1.3c3.1,0.3,6.7,0.9,10.7,1.9c4.1,1,6.1,3.6,6.1,7.8c0,0.6-0.1,1.4-0.2,2.5s-0.4,2.4-0.6,3.8
				c-0.3,9.3-2.3,18.5-5.9,27.8c-2,4.5-3.8,9-5.5,13.5s-3.4,9.1-5.1,13.9c-1.4,4.2-2.8,8.4-4.2,12.6c-1.4,4.2-2.8,8.6-4.2,13
				c6.2-5.3,12.6-10.1,19.3-14.3c6.7-4.2,13.7-8.1,21-11.8c2.2-1.7,4.5-2.5,6.7-2.5c1.1,0,1.7,0.6,1.7,1.7c0,0.8-1.1,2-3.4,3.4
				l-4.6,3.4c-6.4,3.6-12.6,7.6-18.3,11.8c-5.8,4.2-11.4,8.7-17,13.5c-2,1.4-3.9,3-5.9,4.6c-2,1.7-3.8,3.4-5.5,5
				c-1.4,1.4-2.7,3.2-3.8,5.5c-1.1,2.5-2.4,4.8-3.8,6.7c-0.6,0.8-1.1,1.7-1.7,2.5s-1,1.8-1.3,2.9c-0.3,2-1.1,4.1-2.5,6.3
				c-1.1,2-2.2,3.8-3.2,5.5s-1.9,3.5-2.7,5.5c-1.1,1.7-2.1,3.4-2.9,5s-1.8,3.5-2.9,5.5c-0.6,0.6-1.3,1.4-2.1,2.5s-1.7,2.5-2.5,4.2
				c-1.1,1.4-2,2.7-2.5,4c-0.6,1.3-1.1,2.2-1.7,2.7c-1.7,3.1-3.4,5.8-5.3,8c-1.8,2.2-3.3,3.4-4.4,3.4h-1.3c0-0.8,0.3-1.8,0.8-2.9
				c0.3-0.6,0.6-1.2,0.8-1.9c0.3-0.7,0.6-1.3,0.8-1.9c2.2-3.7,5-8.1,8.2-13.5c3.2-5.3,4.8-9.1,4.8-11.4c0-0.6-0.3-0.8-0.8-0.8
				l-3.4,5c-2.3,1.4-3.8,3.2-4.6,5.5l-3.8,6.3l-15.2,24c0.3,0.3,0.4,0.7,0.4,1.3c0,0.8-0.1,1.4-0.4,1.7s-0.4,0.6-0.4,0.8
				s-0.2,0.6-0.4,0.8l-0.8,0.8c-1.1,1.1-1.7,2.7-1.7,4.6v0.4c0.3,0.3,0.4,0.6,0.4,0.8c0,1.1-0.6,1.8-1.7,2.1l-2.5,0.8l-0.8,0.4
				c-0.6,1.7-1.6,3.2-2.9,4.6c-0.6,1.4-1.6,3.4-3.2,5.9s-3.2,3.6-4.8,3.4c-2.8,3.4-5.5,7-8,10.9s-4.6,8-6.3,12.2
				c0,0.3,0.1,0.6,0.4,0.8v0.8c0,1.1-0.7,1.7-2.1,1.7h-1.3l-1.3-0.4l-0.4-0.4c-0.3,0-0.6-0.2-0.8-0.4c-0.6,3.1-2.1,5.2-4.6,6.3
				c-0.8,1.7-2,2.8-3.4,3.4c-1.1,0.3-2.5,1.3-4.2,3h-0.4c-0.6,1.1-1.6,2.2-2.9,3.4c-1.4,1.1-2.7,1.8-3.8,2.1l-0.4,0.4h-0.8l-0.8,0.4
				c-0.8,1.4-2.2,2.7-4,3.8s-3.4,2-4.8,2.5c-0.8,1.4-2.5,3.3-4.8,5.7c-2.4,2.4-4.3,3.6-5.7,3.6h-1.7
				C1418.1,707.9,1416,708.6,1414.1,708.6z M1418.7,688.8c1.7-0.6,3.4-1.1,5.1-1.7c1.7-0.6,3.2-1.5,4.6-2.9
				c2.5-2.3,6.3-6.1,11.4-11.6s10.4-11.6,16-18.3s10.7-12.8,15.2-18.1c3.9-5.3,8.2-11.2,12.8-17.5s8.8-12.3,12.4-18.1
				s5.8-10.2,6.3-13.3c-4.2,4.2-8.3,8.3-12.2,12.4c-3.9,4.1-8,8.1-12.2,12c-8.7,8.4-17.1,17.3-25.2,26.5
				c-4.8,5.6-9.3,11.4-13.5,17.3c-4.2,5.9-8.3,11.8-12.2,17.7c-1.7,2.5-3.4,4.9-5.1,7.2c-2.3,2.5-3.5,5.2-3.8,8
				C1418.6,688.4,1418.7,688.5,1418.7,688.8z"/>
			<path class="st0" d="M1605.1,588.7c-5.6,0-9.8-2.7-12.4-8c-2.7-5.3-4-10.4-4-15.2c0-7.8,1.7-17.1,5.1-27.8s7.5-21.7,12.4-33
				c4.9-11.4,10-22.1,15.4-32.4c5.3-10.2,9.8-18.9,13.5-25.9c2.2-3.9,5.3-9,9.1-15.4s5.8-11,6.1-14.1l-5.9,1.3
				c-1.1,0.3-2.2,0.5-3.2,0.6s-2,0.2-3.2,0.2c-0.3,0-0.6-0.1-0.8-0.4h-2.1v-1.3c0-0.8,0.3-1.3,0.8-1.3c1.7-3.1,4.8-5.3,9.3-6.7
				c4.5-1.4,8.3-2.1,11.4-2.1c8.1,0,14.7,3,19.8,9s7.6,13,7.6,20.8v4.2c0,1.1-0.3,2.5-0.8,4.2c-1.1,3.6-4.3,8.6-9.5,14.7
				s-9.6,11.4-13.3,15.6c-4.8,5.9-9.2,12.1-13.3,18.5c-4.1,6.5-8.1,12.9-12,19.4c-0.3,0.6-0.6,1.2-0.8,1.9c-0.3,0.7-0.7,1.5-1.3,2.3
				c-0.6,0.8-1.1,1.7-1.5,2.5s-0.9,1.7-1.5,2.5c-0.6,0.6-1.1,1.3-1.5,2.1s-0.9,1.5-1.5,2.1c-0.3,0.8-0.6,1.6-1.1,2.3
				c-0.4,0.7-0.9,1.3-1.5,1.9c-2.5,2-4.8,4.2-6.7,6.7c-1.7,1.7-3.4,4.7-5.3,9c-1.8,4.3-3.4,8.9-4.6,13.7c-1.3,4.8-2.2,8.7-2.7,11.8
				c3.4-2,5.9-3.8,7.6-5.5c1.1-1.1,2.3-2.2,3.6-3.2c1.3-1,2.4-2,3.6-3.2c10.9-8.7,20.3-18.2,28.2-28.6l24.4-31.6l8.8-10.1
				c1.4-1.4,2.7-3,3.8-4.8c1.1-1.8,2.2-3.7,3.4-5.7c1.7-3.1,3.1-6.4,4.2-9.9s1.7-7.2,1.7-11.1c3.1-2.2,6.2-3.4,9.3-3.4
				c1.7,0,3.6,0.3,5.9,0.8c0.8,0.3,1.7,0.6,2.5,0.8c0.8,0.3,1.8,0.6,2.9,0.8c2,0.3,3.8,0.6,5.5,1s3.4,0.8,5.1,1
				c3.4,0.8,5.1,3.8,5.1,8.8c0,2-0.2,3.2-0.4,3.8c-3.1,7-6.9,13.6-11.4,19.8c-4.8,7-8,14-9.7,21v1.3c0,0.6-0.3,1.1-0.8,1.7
				c-4.5,10.1-6.7,20.1-6.7,29.9c0,0.6,0.1,1,0.4,1.3v1.7l0.4,1.7c6.7-1.4,13.4-4.8,20-10.1s12.9-11.7,18.9-19.1
				s11.2-14.9,15.4-22.5c4.5-7.6,8.6-15.8,12.4-24.8s6.9-17.7,9.5-26.3c2.5-8.5,3.8-15.9,3.8-22.1c0-1.4-0.1-2.9-0.2-4.4
				s-0.3-3-0.6-4.4c-0.8-3.1-2.4-5.1-4.6-6.1c-2.3-1-4.9-1.5-8-1.5h-3.8c-1.7,0-2.9-0.1-3.8-0.4c-1.1-0.3-2-0.7-2.7-1.3
				s-1.1-1.8-1.1-3.8c3.1,0.6,5.8,0.1,8-1.3c2-1.1,4.2-1.7,6.7-1.7c8.7,0,15.6,2.3,20.6,6.7c5.1,4.5,7.6,11.2,7.6,20.2
				c0,7.3-1.6,14.9-4.6,22.9c-3.1,8-6.2,15.2-9.3,21.7c-1.7,3.4-4.8,8.4-9.3,14.9s-9.5,13.5-15.2,20.8c-5.7,7.3-10.8,13.8-15.6,19.3
				c-4.8,5.6-10.2,11.6-16.4,17.9s-12.1,11.6-17.9,15.8s-10.6,6.3-14.5,6.3c-2.3,0-4.1-0.6-5.7-1.9c-1.6-1.3-3-2.7-4.4-4.4
				c-3.7-3.9-6.2-8.3-7.6-13c-1.4-4.8-2.1-10-2.1-15.6c0-10.1,1.5-20.2,4.6-30.3c-2.3,3.1-4.5,6.3-6.7,9.7c-2.3,3.4-4.3,6.6-6.3,9.7
				c-2,3.4-4.1,6.7-6.3,10.1c-2.3,3.4-4.5,6.6-6.7,9.7c-5.1,6.7-10.1,12.5-15.2,17.3l-16.8,16.4c-2.3,2.2-5.2,5-8.8,8.2
				C1611.9,587.1,1608.4,588.7,1605.1,588.7z"/>
			<path class="st0" d="M1902.1,579c-2.8-3.4-5.7-6-8.6-7.8s-5.5-3.9-7.6-6.3s-3.2-5.7-3.2-9.9h0.8l-1.3-6.3l-1.3,1.3l-0.8,1.3
				c0.3-1.1,0.6-2.2,0.8-3.2c0.3-1,0.6-1.9,0.8-2.7c0.3-1.4,0.5-2.7,0.6-4s0.2-2.6,0.2-4c0-3.6,0.3-7.2,0.8-10.7
				c0.6-3.5,1.3-6.9,2.1-10.3s1.6-6.8,2.3-10.3c0.7-3.5,1.3-7.2,1.9-11.1h0.8l4.6-10.9l-0.4-2.1c-0.6,1.1-1,1.8-1.3,2.1
				c-0.3,0.6-0.7,1.1-1.3,1.7c-3.1,4.5-6.9,9.9-11.4,16.2c-4.5,6.3-9,12.2-13.5,17.7s-8.6,9.3-12.2,11.6c-2.3,1.4-3.8,2.5-4.6,3.2
				c-0.8,0.7-1.8,2.5-2.9,5.3c-2.8,0.6-5.5,2.4-8.2,5.5s-5.3,6-7.8,8.8s-5.3,4.3-8.4,4.6l-0.4,2.1c-1.7,1.7-3.9,2.9-6.7,3.6
				c-2.8,0.7-5.3,1.2-7.6,1.5c-6.2-2.2-12.2-5.3-18.1-9.3s-8.8-9.4-8.8-16.4c0-2.8,0.4-5.2,1.3-7.2h0.4v-2.1c-0.6-0.8-0.7-2-0.4-3.4
				c0.3-1.4,0.7-2.1,1.3-2.1l0.4,0.4c0.6-0.8,0.9-2.2,1.1-4.2c0.1-2,0.2-3.2,0.2-3.8l0.8-0.8c0-2,1-4.1,2.9-6.3
				c2-2.2,3.8-4.3,5.7-6.3c1.8-2,2.7-3.4,2.7-4.2c0.3-0.3,0.4-0.7,0.4-1.3c0-1.4-0.1-2.5-0.4-3.4c-0.6-1.1-0.7-2.1-0.4-2.9v-1.7h1.7
				l1.3-2.1V488c-0.8-0.6-1.3-1-1.3-1.3v-0.8c0-0.8,0.3-1.5,0.8-2.1l1.3-1.3v-0.4c0-0.3,0.1-0.6,0.4-0.8v-0.8l2.1-2.1
				c1.1-1.1,2-1.8,2.5-2.1c2.2-3.1,4.1-5.9,5.5-8.4h1.7l0.4,0.4c-0.3-0.6-0.5-1-0.6-1.3s-0.2-0.6-0.2-0.8c0-2.2,1.9-5.5,5.7-9.7
				s8.3-8.8,13.7-13.7c5.3-4.9,10.5-9.5,15.6-13.9c5.1-4.3,9-7.8,11.8-10.3v-2.1h0.8c1.1-0.6,2.3-1.4,3.6-2.5c1.3-1.1,2.6-2.2,4-3.4
				c2.8-2.8,5.2-4.4,7.2-4.6l0.8-2.1l2.5-0.4c0.3-0.3,0.6-0.6,0.8-0.8c0.3-0.3,0.6-0.6,0.8-0.8c0.6-0.3,1-0.4,1.3-0.4
				s0.6-0.1,0.8-0.4l0.4-0.4l0.8-0.4v-0.4c0-0.3,0.1-0.6,0.4-0.8l7.6-2.9l0.8,0.4l5.9-2.5l1.3-1.3h0.4l5.5-0.4l2.9-1.7l0.8-0.8v0.4
				l0.4-0.4l0.8,0.8c2.5-1.1,5.1-1.7,7.6-1.7s5.9,0.4,10.1,1.3s8.1,2.2,11.8,4c3.6,1.8,5.8,4.3,6.3,7.4v0.8l-8.8,5
				c0.6-1.4,1-2.2,1.3-2.5v-1c0-0.6-0.6-0.8-1.7-0.8h-2.5c-5.9,0-11.3,1.7-16.2,5c-4.9,3.4-9.6,6.7-14.1,10.1c-2.5,0.6-5.2,2.3-8,5
				c-2.8,2.8-5.3,4.9-7.6,6.3c-10.9,8.4-20.8,16.8-29.7,25c-8.8,8.3-17.2,18.2-25,29.7c-1.4,2.3-3.2,5.1-5.5,8.6s-4.2,6-5.9,7.4
				c-1.4,2.5-2.8,5-4.2,7.6c-1.4,2.5-2.7,5.2-3.8,8c-1.1,2.8-2.4,5.5-3.8,8s-2.8,4.9-4.2,7.2c0,3.4-0.4,6.6-1.3,9.7
				c-0.6,1.7-0.8,3.1-0.8,4.2c-0.3,0.8-0.4,1.7-0.4,2.5s-0.1,1.5-0.4,2.1l1.7,3.8c3.4-1.4,7.4-3.2,12.2-5.5c4.8-2.2,7.2-4.8,7.2-7.6
				l2.5-0.8h0.8v-0.8c0.6-0.6,1-0.8,1.3-0.8h1.3l1.3-1.7V534l1.7,1.7l5.5-5.5c0-1.4,1-2.2,2.9-2.5c4.8-3.9,9-8.5,12.6-13.9
				c2-2.8,3.9-5.5,5.9-8s4.1-4.9,6.3-7.1h0.8l5.5-6.7l-0.4-1.7l5.9-7.6h0.8c0.6-1.7,1.4-3.4,2.5-5l1.3,0.8l3.4-4.6l-0.4-0.4
				c1.4-2.2,2.9-4.5,4.6-6.7s3.4-4.3,5.1-6.3c1.7-2.2,3.3-4.5,4.8-6.7s3-4.5,4.4-6.7c0-2,0.7-3.8,2.1-5.5s3.2-2.5,5.5-2.5l2.9,0.8
				c1.1-2,1.7-5,1.7-9.3c1.4,0.3,2.5,0,3.4-0.8l2.5-0.8v0.8l3.4,1.3c1.1-0.6,2-0.8,2.5-0.8c2.2,0,4.5,0.6,6.7,1.9s4.2,2.6,5.9,4
				c0,0.6,0.1,0.7,0.4,0.4c0-0.3,0.1-0.4,0.4-0.4h2.1c3.6,0,5.5,1.5,5.5,4.6v1.3c-1.4,2-2.7,3.9-4,5.9s-2.5,3.9-3.6,5.9
				c-2.3,3.9-5.3,7.4-9.3,10.5v0.8l-6.7,9.7l0.8,1.7l-14.3,17.7l-1.3,0.4c-0.6,2-1.2,3.9-1.9,5.7c-0.7,1.8-1.5,3.7-2.3,5.7l-3.8,1.3
				c0.6,0.6,0.8,1.3,0.8,2.1c0,1.1,0.1,1.8,0.4,2.1c-2.3,4.2-4.1,8.4-5.7,12.6s-2,8.7-1.5,13.5c-0.8,0.6-1.3,1.3-1.5,2.3
				s-0.2,1.9-0.2,2.7c0,1.4,0.1,2.7,0.2,4s0.3,2.6,0.6,4c0.3,1.4,0.6,2.8,0.8,4.2c0.3,1.4,0.6,2.8,0.8,4.2l4.6-2.5h1.3l0.4-0.4
				l0.8-1.3c0-0.8,0.4-1.8,1.3-3l0.8,3.4l3.8-1.7v1.7h0.4c1.1,0,2-0.8,2.5-2.5c0.6-0.6,1.3-1.2,2.1-1.9s1.8-1,2.9-1l0.4-0.8v-1.3
				c0-1.4,1-2.5,2.9-3.4c1.1-0.3,2-0.6,2.7-1s1.3-0.6,1.9-0.6h0.4l10.9-10.9h0.4c0.6-0.8,1.8-2,3.6-3.6c1.8-1.5,3.4-2.6,4.8-3.2
				v-2.9l2.9-0.8h0.4l9.7-13.5c0,0.3,0.3,0.4,0.8,0.4c0.6,0,1,0.1,1.3,0.4c0.3,0,0.8-0.5,1.5-1.5s1.1-1.8,1.1-2.3
				c0.3-0.3,0.6-0.6,1.1-1c0.4-0.4,1.2-0.8,2.3-1c0.8-0.6,1.5-0.9,2.1-1s1-0.4,1.3-0.6c-3.1,5.9-5.8,11.2-8.2,16
				c-2.4,4.8-4.7,9.5-6.9,14.3c-2.3,4.8-4.8,9.3-7.6,13.7c-2.8,4.3-6.3,8.6-10.5,12.8l-1.7-1.7l2.9-3.8l-0.4-2.5l-0.8,0.4v1.7
				l-2.9,3c-0.3,3.7-1.6,6.3-3.8,8h-1.7l-0.8-0.4v2.1l-2.5,3l-1.3-0.4l-5.1,7.2v-1.3l-0.8,0.4c-0.6,0.3-1.1,0.6-1.7,0.8
				c-0.6,0.3-1.1,0.6-1.7,0.8c-1.7,0.6-2.7,1.4-2.9,2.5L1902.1,579z M1944.2,545.8c0-0.8,0.1-1.4,0.4-1.7l0.8-1.3l-1.7,0.4h0.4
				l-1.3,2.1l0.4-0.4L1944.2,545.8z"/>
			<path class="st0" d="M2025.8,539.9c-0.8,0-1.5-0.3-2.1-0.8c-0.3,0.3-1.1,0.4-2.5,0.4c-3.7,0-7.3-2.5-10.9-7.6
				c-3.7-5-5.5-9.4-5.5-13c0-6.5,1.7-13.2,5.1-20.2l9.3-19.4c1.7-3.4,2.5-5.6,2.5-6.7l-2.1-3.4l-2.1-2.1c-0.6-0.6-1.1-1-1.5-1.5
				c-0.4-0.4-0.9-0.9-1.5-1.5c-1.7-2-3.4-4.2-5.1-6.7s-2.8-5.5-3.4-8.8c-0.6,0.6-1.8,2.7-3.8,6.3c-2,3.6-3.9,7.1-5.9,10.5
				s-3.5,5-4.6,5c-0.6,0-1-0.1-1.3-0.4s-0.7-0.4-1.3-0.4c-0.6,0-1.3,1.1-2.1,3.4c-1.1,1.7-2.7,4.1-4.6,7.4c-2,3.2-3.9,6.3-5.9,9
				c-2,2.8-3.8,4.2-5.5,4.2c-1.1,0-1.7-0.6-1.7-1.7c0-0.8,0.6-2.5,1.7-4.8c1.1-2.4,2.4-4.8,4-7.1c1.5-2.4,2.6-3.9,3.2-4.4
				c3.4-4.8,6.2-9,8.4-12.6c2.2-3.6,4.3-7.4,6.3-11.4c1.7-3.6,3.4-7.4,5.3-11.1c1.8-3.8,4-8.1,6.5-12.8c0.6-3.9,1.4-8,2.5-12.2
				c4.2-12.6,9.2-23.6,14.9-33c5.8-9.4,13-19,21.7-28.8c2-2,4.3-4.4,6.9-7.4c2.7-2.9,5.4-5.7,8.2-8.2s5.2-3.8,7.1-3.8
				c1.7,0,3.6,0.7,5.9,2.1c1.1,0.6,2.1,1.1,2.9,1.7c0.8,0.6,1.7,1.1,2.5,1.7l8.4,4.6c3.1,1.7,4.6,4.4,4.6,8c0,1.4-0.1,2.3-0.4,2.5
				c-0.8,3.1-3.6,6.4-8.2,9.9c-4.6,3.5-9.7,7.1-15.1,10.7c-5.5,3.6-9.9,7.1-13.3,10.5c-5.1,4.5-9.4,9.5-13,15.1
				c-3.7,5.6-7,11.6-10.1,18.1c-0.3,1.1-0.6,2.1-1.1,2.9s-0.8,1.8-1.1,2.9c-0.3,2-1,4.2-2.1,6.7c-0.3,0.6-0.6,1.2-0.8,1.9
				c-0.3,0.7-0.4,1.5-0.4,2.3c0,1.4,0.1,2.4,0.4,3c0.3,0.8,0.4,2,0.4,3.4c0,1.7-0.1,2.8-0.4,3.4c-0.3,0.8-0.4,2.1-0.4,3.8
				c0,3.1,1.5,6,4.6,8.6c3.1,2.7,6.1,5.5,9.1,8.6c2.9,3.1,4.4,6.6,4.4,10.5c0,3.4-1.1,7.4-3.4,12.2c-2.3,4.8-4.8,9.5-7.6,14.3
				c-2.8,4.8-5.1,9.1-6.7,13l-2.1,5l-0.8,2.9c0,0.6,0.1,0.8,0.4,0.8l0.8,1.3c2.5,0,6-1.8,10.5-5.5c4.5-3.6,9-7.6,13.5-12
				c4.5-4.4,7.6-7.4,9.3-9c3.4-3.6,6.4-7.5,9.3-11.6c2.8-4.1,5.5-8.2,8-12.4c0.6-1.4,1.5-3,2.7-4.8c1.3-1.8,2.6-2.7,4-2.7
				c1.7,0,2.5,1,2.5,3c0,1.7-1.5,5-4.4,9.9s-6.1,9.8-9.5,14.5c-3.4,4.8-5.8,7.9-7.1,9.3l-0.4,0.8v0.4c-0.8,2-2.1,3.2-3.8,3.8
				c-0.3,0.3-0.7,1-1.3,2.1s-1,1.8-1.3,2.1c0,0.6-0.4,1.1-1.3,1.7l-1.7,0.4c-0.3,1.1-1.1,2.1-2.5,2.9l-2.5,2.5
				c-0.3,0-0.4,0.1-0.4,0.4c0,0.3-0.1,0.4-0.4,0.4c-0.3,1.7-1.4,2.5-3.4,2.5c-0.6,1.1-1.3,2.5-2.3,4.2s-2.2,2.5-3.6,2.5
				c-1.4,2-3.2,3-5.5,3c-0.3,0.3-0.4,0.7-0.4,1.3c0,0.3-0.2,0.6-0.4,0.8c-0.6,1.4-1.8,2.1-3.8,2.1
				C2027.2,539.7,2026.7,539.9,2025.8,539.9z"/>
			<path class="st0" d="M2063.7,560.1c-1.1,0-1.7-0.3-1.7-0.8c-1.1-0.6-1.8-0.8-2.1-0.8l-1.3-0.8l-0.4-0.8h-0.4l-4.6-3.8l0.8-1.7
				c-3.4-2.5-5.4-5.9-6.1-10.1c-0.7-4.2-1.1-8.1-1.1-11.8c0-2.8,0.3-5.4,0.8-7.8c0.6-2.4,1.6-4.7,2.9-6.9l-0.8-1.3l2.1-1.3v-0.8
				c0-3.9,1.8-9,5.3-15.4c3.5-6.3,7.5-12.5,12-18.7s8.3-10.8,11.4-13.9l-0.4-0.4c1.1-1.4,2.8-3.7,5.1-6.9c2.2-3.2,4.6-6.2,6.9-8.8
				c2.4-2.7,4.3-4,5.7-4l5.9-6.7v-2.1l1.3-0.8l3.8-1.3l-0.4-0.8c2.5-3.1,5.7-6,9.5-8.6s7.4-5,10.7-6.9l7.1-3.8l2.5-0.8l1.3-1.3
				c0.8-0.8,2.5-1.3,5.1-1.3c3.9,0,8.9,1.2,14.9,3.6s9.6,5.4,10.7,9c2,1.4,3.2,2.8,3.8,4.2c0.8-1.7,1.5-3.5,1.9-5.5s0.8-3.8,1.1-5.5
				c0-3.1,0.8-6.3,2.5-9.7l1.3-1.3c1.7-4.5,4.5-8.7,8.4-12.6c2-1.7,3.7-3.6,5.3-5.9c1.5-2.2,2.9-4.4,4-6.3c0-0.8,0.7-3.1,2.1-6.7
				c1.7-3.1,2.2-4.9,1.7-5.5c5.1-7.3,9.7-14.9,14.1-22.7c4.3-7.9,8.3-16,12-24.4c3.6-8.4,7.4-16.8,11.4-25
				c3.9-8.3,7.7-16.3,11.4-24.2c0.6-0.3,0.8-1,0.8-2.1c0-0.8-0.1-1.5-0.4-2.1s-0.6-1.1-0.8-1.7l6.7-8.8c1.4-1.4,2.7-2.8,3.8-4.2
				s2.2-2.7,3.4-3.8c3.1,0.3,6.2,0.6,9.3,0.8c3.1,0.3,6,0.3,8.8,0c6.2,0,12.1,1.4,17.7,4.2c2.5,1.1,5.5,2.7,8.8,4.8
				c3.4,2.1,5.1,5,5.1,8.6s-1.8,7.1-5.5,10.5c-2,1.4-3.7,2.8-5.3,4.2c-1.6,1.4-2.9,2.8-4,4.2c-2,2.3-3.9,4.4-5.9,6.5s-4.5,3.4-7.6,4
				l-1.3-1.3h1.3c1.4-3.1,3.6-6.9,6.7-11.4c2.8-3.9,4.2-7.6,4.2-10.9c0-1.4-0.1-2.2-0.4-2.5l-0.8,0.4l0.4,0.4
				c-1.1,1.7-2.4,3.1-3.8,4.2c-1.4,1.1-2.8,2.4-4.2,3.8c-1.1,1.1-2.3,2.4-3.4,3.8c-1.1,1.4-2.3,2.8-3.4,4.2c-1.7,2.3-4.6,6.3-8.6,12
				c-4.1,5.8-8.1,11.4-12.2,16.8c-4.1,5.5-7.2,9-9.5,10.7l-0.4,1.3h-0.8c0.6,0.8,1.5,1.3,2.9,1.3c-1.4,1.1-3.4,1.7-5.9,1.7
				c1.1,1.1,1.7,2.1,1.7,2.9c0,1.7-0.8,2.8-2.5,3.4s-3.2,0.8-4.6,0.8c0,4.5-1.7,7.1-5.1,8c-0.3,0.3-0.6,0.4-0.8,0.4
				c-0.3,0-0.4-0.1-0.4-0.4h-1.3c0.8,0.6,1.6,1.2,2.3,1.9c0.7,0.7,1.2,1.2,1.5,1.5l-0.8,0.4l0.4,0.4h-1.7c-1.7,0-2.3,0.3-1.7,0.8
				l0.4,2.5h2.5c1.4,0,2.4,0.3,2.9,0.8h-1.3l-1.3,3.4c0.6-0.3,1.8-0.4,3.8-0.4c3.9-4.8,7.5-9.5,10.7-14.3s6.7-9.4,10.3-13.9
				c3.4-4.8,6.7-9.5,10.1-14.3s6.9-9.4,10.5-13.9l-0.4-0.8c0.6,0.6,0.8,1.5,0.8,2.9c0,2.3-1.3,5.5-3.8,9.9s-5.6,9-9.3,13.9
				c-3.6,4.9-7.2,9.7-10.7,14.3c-3.5,4.6-6.4,8.2-8.6,10.7c-0.6,1.1-1.3,2.5-2.1,4s-1.8,2.9-2.9,4c-1.1,1.1-2.3,2.4-3.4,3.8
				c-1.1,1.4-2,2.8-2.5,4.2c-1.7,0.3-2.5,1-2.5,2.1v3.4c0,1.4-0.7,2.4-2.1,2.9c-3.1,1.1-5.3,3-6.5,5.7c-1.3,2.7-2.3,5.5-2.9,8.4
				c-0.7,2.9-2.2,5.5-4.4,7.8c-0.8,1.1-2.4,3.6-4.6,7.4c-2.3,3.8-4.5,7.4-6.7,10.9c-2.3,3.5-4.1,5.3-5.5,5.3l1.7,2.9
				c-2.8,2-4.1,3.4-3.8,4.2c0.3,0.3,0.4,2.1,0.4,5.5c0,0.6-1.1,1.5-3.4,2.9c-2.3,1.7-3.4,3.1-3.4,4.2l-5.1,4.2
				c-1.1,2.5-2.3,4.8-3.4,6.7c-1.1,2-2.1,3.5-2.9,4.6c-2.3,2.5-2.3,6.5,0,11.8c-1.7,2-2.1,3.4-1.3,4.2c0.6,1.1,0,2.7-1.7,4.6
				l-4.6,8.4v0.4l1.7,2.9l-2.1,0.4l0.4,4.6c-0.3-0.3-0.4-0.3-0.4,0c0,1.4,0.4,2.1,1.3,2.1l-2.1,2.5l0.8,1.7l-1.7,8.4
				c-0.6,2.3-0.6,5.1,0,8.4c-1.4,0.6-2.1,2.1-2.1,4.6c0,0.8,0.4,1.3,1.3,1.3l-0.4,5c0.8,0,1.3,0.4,1.3,1.3l-0.8,0.8l0.8,0.8
				c0.8-0.6,1.4-1.3,1.7-2.1s1-1,2.1-0.4l15.6-10.9l2.9-0.4c2.2-2.2,4.4-5.3,6.5-9c2.1-3.8,4.1-5.1,6.1-4c0.6,3.1-1.3,6.9-5.5,11.6
				c-4.2,4.7-8.7,9-13.5,13c-4.8,4.1-8,6.8-9.7,8.2v3.4c0,0.3-0.4,0.5-1.1,0.6s-1.2,0.3-1.5,0.6c-0.6-0.6-1.2-0.7-1.9-0.4
				s-1.3,0.4-1.9,0.4l-2.5,5.5l-0.4-0.8c-0.8,0.3-1.6,0.6-2.3,0.8c-0.7,0.3-1.3,0.6-1.9,0.8c-1.7,0.8-3.4,1.3-5.1,1.3
				s-3.4-2.2-5.1-6.7c-1.7-4.5-3.2-9.3-4.4-14.3c-1.3-5-1.9-8.1-1.9-9.3l0.8-0.8c-0.6-1.1-0.6-2.1,0-2.9c0.6-0.8,0.3-1.5-0.8-2.1
				l2.1-2.1h0.4v-3.8c0-1.4-0.7-1.8-2.1-1.3l-0.4-1.3l0.8-2.1v-0.4l1.3-2.1l-0.4-0.8c0-0.6,0.1-0.8,0.4-0.8s0.6-0.1,0.8-0.4h-0.4
				l-2.1-1.7c-0.3-0.8-0.4-2.2-0.4-4.2c0-2.5,0.7-3.8,2.1-3.8c0-3.1,0.4-5.9,1.3-8.4c0.8-2.5,0-3.2-2.5-2.1l-2.5,1.7
				c-0.3,0.8-0.8,1.3-1.7,1.3c-0.6,1.1-1.6,2.8-3.2,5c-1.6,2.3-3.2,3.2-4.8,2.9v0.4c0,0.3,0.1,0.6,0.4,0.8c0,1.7-1.7,3.9-5.1,6.5
				c-3.4,2.7-4.8,5.5-4.2,8.6l-7.6,5.9l0.8,0.8h-0.8l0.4,1.3c-3.1,3.9-7.1,5.9-12.2,5.9c-2,0-3.4,1.3-4.2,3.8s-2.1,3.8-3.8,3.8
				l1.3,0.4c-2,2-4.4,4.3-7.4,7.2c-2.9,2.8-4.7,5.6-5.3,8.4l-0.4-0.4l0.8,1.3l-2.5,1.7c0,2-1,3.2-2.9,3.8c-2,0.6-3.9,0.8-5.9,0.8
				c-1.7,2.8-4.3,5.3-7.8,7.6C2070,559,2066.8,560.1,2063.7,560.1z M2059.5,550.4h4.6c0.6,0,1.4-0.1,2.5-0.4
				c1.1-0.3,2.1-0.7,2.9-1.3c1.7-0.8,3.4-1.3,5.1-1.3c0-0.3-0.3-0.6-0.8-0.8c0-0.6,0.3-0.8,0.8-0.8c0.3,0.3,0.4,0.3,0.4,0h0.4
				c1.1-1.4,2.4-2.5,3.8-3.4c1.4-0.8,2.8-1.8,4.2-3c2.5-1.4,4.8-3.4,6.7-5.9l1.3,0.8l0.4-2.1c1.7,0,2.5-0.8,2.5-2.5s1.4-2.5,4.2-2.5
				c1.7-1.7,3.6-3.6,5.7-5.7c2.1-2.1,4.1-4.6,6.1-7.4c2.2-2.5,4.3-4.9,6.3-7.1s3.8-4.3,5.5-6.3l0.4,0.8v-0.4
				c1.7-1.7,2.8-2.9,3.4-3.8c0.3-0.6,0.6-1.1,1.1-1.7c0.4-0.6,0.9-1.3,1.5-2.1l1.3,0.8c1.7,0,2.5-0.8,2.5-2.5l-0.4-0.8l2.9-2.5v-1.3
				c0.3,0,0.6,0.1,0.8,0.4c0,0.3,0.3,0.7,0.8,1.3c-0.3-1.1-0.1-2.1,0.6-2.9s1.6-1.1,2.7-0.8l-0.4-1.3l3.8-5.5
				c0.6-0.6,1.3-1.3,2.3-2.1s1.9-2.2,2.7-4.2c0.6-2,1.2-3.5,1.9-4.6s1.2-2,1.5-2.5c2.2,0,3.6-2,4.2-5.9c0.6-3.9,2.4-7,5.5-9.3
				c2,0,3.4-0.6,4.2-1.7s1.7-2.5,2.5-4.2c1.1-1.7,1.8-3.5,2.1-5.5c-0.6-1.7-0.8-2.8-0.8-3.4c0-1.1,0.4-1.8,1.3-2.1
				c0.8-0.8,1.3-1.4,1.3-1.7c0-0.6-1.1-1.4-3.2-2.5c-2.1-1.1-3.4-1.8-4-2.1c0,0.3-0.1,0.5-0.2,0.6c-0.1,0.1-0.4,0.1-0.6-0.2
				c-0.3-0.3-1-0.4-2.1-0.4c-5.6,0-10.6,1.9-14.9,5.7c-4.4,3.8-8.6,7.6-12.8,11.6c-4.2,3.9-8.7,5.9-13.5,5.9c-0.6,2-1.6,3.6-3.2,4.8
				c-1.6,1.3-3,2.3-4.4,3.2v1.7l-3.8,2.1v0.8c0.6,1.7,0.3,2.3-0.8,1.7h-3.4v2.1c-0.3,0.6-0.4,1.3-0.4,2.1c-2,1.4-4.5,3.2-7.6,5.5
				s-5.2,4.6-6.3,7.1l-0.8-0.4l-1.3,1.3l0.8,0.8l-1.7,2.5l-1.7-0.8l0.4,2.5c-1.4,1.4-3.6,3.6-6.7,6.7c-3.1,3.1-4.5,5.8-4.2,8h-1.7
				l-1.3,5h-1.3l-1.7,2.1h-1.3l0.4,0.4v3.4c-0.6,0-0.8,0.4-0.8,1.3l0.8,0.8l-4.2,5.9l2.1,0.4v0.8c0,0.6-0.8,0.8-2.5,0.8l0.4,0.8
				c-0.3,0.8-0.7,1.6-1.3,2.3s-1,1.2-1.3,1.5c-0.3,0.6-0.7,2.4-1.3,5.5s-1.1,6.2-1.7,9.3c-0.6,3.1-1,4.8-1.3,5L2059.5,550.4z
				 M2208.4,383.8c2.8,0,4.2-0.4,4.2-1.3c0-1.4,0.4-2.7,1.3-3.8h2.5c1.7,0,2.5-0.3,2.5-0.8c-0.3-0.3-0.4-0.8-0.4-1.7
				c-1.1,0.3-2.3,0.6-3.4,0.8c-1.1,0.3-2.3,0.4-3.4,0.4c-2.8,0.6-4.2,2.4-4.2,5.5v0.4L2208.4,383.8z"/>
		</g>
	</g>
	<g>
		<path class="st1" d="M1264.9,336.6c0.5,1.1,1,2.3,1.4,3.3c0.5-1.2,1-2.3,1.4-3.5c0.5-1.1,1-2.1,1.6-3.2l20.5-38.4
			c0.2-0.5,0.5-0.8,0.8-1.2c0.2-0.2,0.6-0.5,1-0.6c0.4-0.1,0.7-0.2,1.1-0.2s1,0,1.6,0h9.8v69.4h-11.3v-44.8c0-0.8,0-1.8,0.1-2.7
			c0-1,0.1-2,0.2-3l-21,39.4c-0.5,1-1.1,1.6-1.9,2.1c-0.7,0.5-1.7,0.7-2.7,0.7h-1.8c-1.1,0-1.9-0.2-2.7-0.7
			c-0.7-0.5-1.4-1.2-1.9-2.1l-21.2-39.5c0.1,1.1,0.2,2.1,0.2,3.1c0,1,0.1,1.9,0.1,2.9v44.8h-11.3v-69.4h9.8c0.6,0,1.1,0,1.6,0
			c0.5,0,0.8,0.1,1.1,0.2c0.4,0.1,0.6,0.4,1,0.6c0.2,0.2,0.6,0.7,0.8,1.2l20.7,38.5C1263.9,334.4,1264.4,335.5,1264.9,336.6z"/>
		<path class="st1" d="M1345.7,351.7c2.5,0,4.8-0.5,6.7-1.2c2-0.8,3.6-2,5-3.5c1.4-1.4,2.4-3.3,3.1-5.5s1.1-4.5,1.1-7.2v-41.5h12.9
			v41.5c0,4.2-0.7,8-2,11.4c-1.3,3.5-3.2,6.6-5.7,9.1s-5.5,4.5-9.1,6c-3.6,1.4-7.5,2.1-12,2.1c-4.4,0-8.5-0.7-12-2.1
			c-3.6-1.4-6.6-3.5-9.1-6s-4.4-5.6-5.7-9.1c-1.3-3.5-2-7.3-2-11.4v-41.5h12.9v41.5c0,2.6,0.4,5,1.1,7.2c0.7,2.1,1.8,3.9,3.1,5.5
			c1.3,1.6,3,2.7,5,3.6C1341,351.4,1343.2,351.7,1345.7,351.7z"/>
		<path class="st1" d="M1424.8,305.4c-0.4,0.7-0.7,1.2-1.2,1.6c-0.5,0.4-1,0.5-1.7,0.5c-0.7,0-1.3-0.2-2.1-0.7
			c-0.8-0.5-1.8-1.1-2.9-1.7c-1.1-0.6-2.4-1.2-3.8-1.7c-1.4-0.5-3.2-0.7-5.1-0.7c-1.8,0-3.3,0.2-4.7,0.6c-1.3,0.5-2.5,1.1-3.3,1.8
			c-1,0.7-1.6,1.7-2,2.7c-0.5,1.1-0.7,2.3-0.7,3.6c0,1.7,0.5,3,1.4,4.1s2.1,2,3.6,2.7c1.6,0.7,3.2,1.4,5.1,2s3.9,1.2,5.8,1.9
			c2,0.7,3.9,1.6,5.8,2.4c1.9,1,3.6,2,5.1,3.5c1.6,1.4,2.7,3.1,3.6,5.1c0.8,2,1.4,4.4,1.4,7.4c0,3.1-0.5,6.1-1.6,8.8
			c-1.1,2.7-2.6,5.1-4.7,7.2c-2,2-4.5,3.6-7.5,4.8s-6.3,1.8-10.3,1.8c-2.1,0-4.4-0.2-6.6-0.6c-2.1-0.5-4.2-1.1-6.2-1.8
			c-2-0.8-3.8-1.8-5.5-2.9s-3.2-2.4-4.5-3.7l3.7-6.2c0.4-0.5,0.8-0.8,1.3-1.2c0.5-0.4,1.1-0.5,1.7-0.5c0.8,0,1.7,0.4,2.6,1
			c1,0.6,2,1.4,3.3,2.1c1.3,0.8,2.7,1.6,4.4,2.1c1.7,0.6,3.8,1,6.2,1c3.7,0,6.6-0.8,8.6-2.6c2-1.8,3-4.3,3-7.5
			c0-1.8-0.5-3.3-1.4-4.4c-1-1.2-2.1-2.1-3.6-2.9c-1.6-0.8-3.2-1.4-5.1-2s-3.9-1.2-5.8-1.8c-2-0.6-3.9-1.4-5.8-2.3
			c-1.9-0.8-3.6-2-5.1-3.5c-1.6-1.4-2.7-3.2-3.6-5.4s-1.4-4.8-1.4-8c0-2.5,0.5-5,1.6-7.4c1-2.4,2.5-4.5,4.4-6.4
			c1.9-1.8,4.3-3.3,7.2-4.4c2.9-1.1,6.1-1.7,9.7-1.7c4.1,0,7.9,0.6,11.3,1.9c3.5,1.3,6.4,3.1,8.8,5.4L1424.8,305.4z"/>
		<path class="st1" d="M1453.7,362.1h-13v-69.4h13V362.1z"/>
		<path class="st1" d="M1517,345.8c0.7,0,1.3,0.2,1.8,0.8l5.1,5.5c-2.9,3.5-6.3,6.2-10.4,8c-4.1,1.8-9.1,2.7-14.8,2.7
			c-5.1,0-9.8-0.8-14-2.6c-4.1-1.8-7.6-4.2-10.5-7.4c-2.9-3.2-5.1-6.9-6.7-11.2c-1.6-4.3-2.3-9.1-2.3-14.3s0.8-10,2.6-14.3
			c1.7-4.3,4.2-8.1,7.3-11.2c3.1-3.1,6.9-5.6,11.2-7.3c4.4-1.8,9.2-2.6,14.4-2.6c5.1,0,9.7,0.8,13.5,2.5c3.8,1.7,7.2,3.8,9.9,6.6
			l-4.3,6c-0.2,0.4-0.6,0.7-1,1s-1,0.5-1.7,0.5c-0.7,0-1.6-0.2-2.3-0.8c-0.7-0.6-1.8-1.2-2.9-1.9c-1.1-0.7-2.7-1.3-4.5-1.9
			c-1.8-0.6-4.1-0.8-6.9-0.8c-3.2,0-6.3,0.6-8.9,1.7c-2.7,1.2-5.1,2.7-7,4.9c-1.9,2.1-3.5,4.7-4.7,7.8c-1.1,3-1.7,6.4-1.7,10.1
			c0,3.9,0.6,7.4,1.7,10.4s2.6,5.6,4.5,7.6c1.9,2,4.1,3.7,6.7,4.8s5.2,1.7,8.2,1.7c1.8,0,3.3-0.1,4.8-0.2c1.4-0.1,2.7-0.5,3.9-1
			c1.2-0.5,2.4-1,3.5-1.7c1.1-0.6,2.1-1.4,3.2-2.4c0.4-0.2,0.7-0.5,1-0.7C1516.1,345.9,1516.5,345.8,1517,345.8z"/>
	</g>
</g>
<g>
	<path class="st0" d="M144.3,207.5c-0.8-19.1,10.4-26.2,23.5-32.1c2.6-1.2,5.3-2.3,7.9-3.3l-14.1-8.1C111.8,185,70.7,222,39,276.3
		v29.6c17.9-40.2,43.8-75.1,74.8-98.1c10.6-7.8,20.1-7.9,30.2-0.3c0-0.1,0-0.1,0-0.2C144.2,207.4,144.2,207.5,144.3,207.5z"/>
	<path class="st0" d="M125.5,143.1L50.3,99.7c-5-2.9-11.3,0.7-11.3,6.5v112.3C63.8,185.8,92.9,161,125.5,143.1z"/>
	<path class="st0" d="M124.4,696.7c10.7-26.1,20.6-52.4,27.2-80.5c9.8-41.4,4.1-82.2-0.8-123.4c-5-42.3-7.1-84.8,16.1-122.5
		c2.7-4.4,5.6-8.7,8.8-12.6c4.8-5.8,10.8-7.9,16.9-3.1c6.3,4.9,7,12.6,2.8,19c-28.5,43.6-21.1,93.7-15.2,141
		c7.5,60.3-4.1,114.9-22.3,168.5l31.1-18c11.6-39.2,16.8-79.9,14.7-122.3c-1.6-33.2-7.1-66.3-8.5-99.5c-1.9-45,18.4-73.2,53.1-77.7
		c29.7-3.9,55.6,20.6,63.6,61.8c4.8,24.6,7.6,49.8,6.8,75.2c0,9,0.2,18,0,27.1c-0.3,10.7,0.9,24.3-11.9,25.2
		c-13.9,1-15.4-13.3-16-24.9c-1.1-20.7-0.9-41.5-1.2-62.2c-0.2-14.4-0.6-28.8-5-42.7c-6.2-19.7-16.8-34.1-36.3-30.5
		c-19.7,3.6-29.6,19.3-28.2,42.6c2.1,33.3,3.8,66.6,7.5,99.6c4.4,39.2-0.4,76-9.6,111.7l20-11.6c16.4-59.9,12.2-120.3,4.5-181.1
		c-1.7-13.3-11.2-35,8.6-38.1c18.6-2.9,16.6,20.6,18.4,34.2c4,30.2,5.5,60.8,8,91.2c0,25.8-3.5,51-8.2,75.9l20.6-11.9
		c0.2-2.4,0.5-4.8,0.6-7.3c0.6-8.3,3.1-17,12.3-16.3c6.1,0.5,8.9,4.8,10.2,10.3l22.6-13.1c2.3-41.8,1.8-84,0.7-126.2
		c-0.4-16.4-2.8-32.3-7.9-47.6c-14.5-43.3-46.8-62.9-93.2-57c-8.8,1.1-20.7,7.3-23.3-8.4c-2.3-13.9,9.4-16.9,18.3-20.1
		c52.6-18.6,110,20.3,125.3,85.1c2.3,9.5,3.7,19.4,5,29.2c3.5,26.8,6.4,53.6,5.3,80.8c-0.4,16-1,32-2.1,47.9l19.4-11.2
		c0.9-49.4-3.3-98.5-11.6-147.4c-0.8-4.4-1.6-8.8-2-13.3c-0.8-8.6,0.4-17,8.5-20c9.8-3.5,14.4,4.4,17.5,13.2
		c8.9,25.5,10,52.7,11.9,79.6c1.3,18.8,0.3,37.9,0.3,56.8c0.1,5.6,0.2,11.1,0.2,16.7l18.2-10.5c-0.1-9.1-0.4-18.2-0.7-27.3
		c-1.1-30.6-4-61.1-7.2-91.5C412,351.2,386,307.1,343.7,275c-2.6-2-5.3-3.9-7.8-6c-3.1-2.6-5.8-5.4-7.3-8.7L303,245.6
		c-2.9,2.5-6.8,3.5-11,3.3c-14.8-0.7-29.6-2.8-44.4-3.1C149.3,244,71,355.5,87.9,461.1c8.1,50.5,13.2,101.7,0.2,152.4
		c-3.1,12.1-6.6,24-10.8,35.6c-3.7,10.1-8.5,21.3-20.6,15.1c-10.3-5.3-8.3-16-5.2-25.8c17.8-55.6,17.5-111.4,9.4-170
		c-18.3-132.5,68.9-250.5,184.8-256l-32.9-19c-11.8,2.5-23.5,6.3-35.1,11.7c-11.1,5.2-21.9,9.6-33.5,2.3c0,0.1,0,0.1,0,0.2l0,0
		c-0.1-0.1-0.1-0.1-0.2-0.1c-1,15.2-10.8,23-20,31.4c-67.8,62.4-93.3,143.3-80.4,241.6c4.9,37.5,5.4,75.3-1.7,112.7
		c-0.8,4.4-1.5,9.6-3,14v131.6c0,5.8,6.3,9.4,11.3,6.5l71.8-41.4C122.6,701.5,123.4,699.1,124.4,696.7z M256.8,265.6
		c40.1-2.1,75.7,17.8,105,53.8c8,9.9,22.8,21.6,9.7,35.9c-12.5,13.6-21.3-4.3-28-13.6c-55.5-78-179.8-57.5-208.9,54.9
		c-7.1,27.4-6.1,55.3,0.4,82.8c6,25.8,6.7,51.6,2.6,77.7c-1.5,9.1-4.6,18.6-14.7,17.4c-9.8-1.2-12.9-11.3-11.3-20.3
		c6.4-35.9-4-69.3-8.7-103.9C89.8,355,164,265.2,256.8,265.6z M89.7,695.7c-4.8-2.2-7.7-7.3-7-12.7c3.2-25.1,11.7-48,23.7-69.1
		c1.8-3.1,6.5-4.1,8.4-5.3c9.2,1.2,14.4,6.5,13,14.3c-4.3,24.8-12.9,47.8-25.7,68.4C99.3,695.9,94.7,698,89.7,695.7z"/>
	<path class="st0" d="M598.1,416l-63.4-36.6c2,13.6,3,27.3,2.9,40.8c-0.3,7.4-1.9,19.2-13.6,20.6c-13.3,1.6-16.8-10.3-17.8-22.9
		c-1.8-21.4-4.8-41.4-9.1-60.2l-15-8.7c8.7,33.7,11.5,69.4,10.1,106.8c-0.1,2.7-0.1,5.5-0.8,8c-2.9,11.6-2.4,28.7-18,25.7
		c-14-2.7-10.4-18.3-9.3-29.2c5-49.5-2.5-94.2-18.4-132.4l-33.6-19.4c3.1,5.2,6,10.5,8.9,15.9c17.6,34,25.6,71.7,28.7,110.6
		c1.9,25,2.9,50.1,4,77.3L598.1,429C603.1,426.1,603.1,418.9,598.1,416z"/>
</g>
</svg>
