<?xml version="1.0" encoding="utf-8"?>
<!-- Generator: Adobe Illustrator 23.1.0, SVG Export Plug-In . SVG Version: 6.00 Build 0)  -->
<svg version="1.1" id="Layer_1" xmlns="http://www.w3.org/2000/svg" xmlns:xlink="http://www.w3.org/1999/xlink" x="0px" y="0px"
	 viewBox="0 0 1000 1000" style="enable-background:new 0 0 1000 1000;" xml:space="preserve">
<style type="text/css">
	.st0{fill:#FFFFFF;stroke:#FFFFFF;stroke-miterlimit:10;}
	.st1{fill:#FFFFFF;}
</style>
<g>
	<g>
		<path d="M109.68,972.62c-12.08,0-21.9-9.83-21.9-21.9V49.29c0-12.08,9.83-21.9,21.9-21.9c3.82,0,7.6,1.02,10.94,2.94
			l780.66,450.71c6.75,3.9,10.95,11.16,10.95,18.96c0,7.8-4.19,15.06-10.95,18.96L120.62,969.67
			C117.28,971.6,113.5,972.62,109.68,972.62z"/>
		<path d="M109.68,42.98c1.05,0,2.13,0.27,3.14,0.85l780.66,450.71c4.2,2.43,4.2,8.49,0,10.92L112.82,956.17
			c-1.02,0.59-2.09,0.85-3.14,0.85c-3.29,0-6.31-2.63-6.31-6.31V49.29C103.37,45.61,106.39,42.98,109.68,42.98 M109.68,11.79
			c-20.67,0-37.49,16.82-37.49,37.49v901.43c0,20.67,16.82,37.49,37.49,37.49c6.55,0,13.03-1.74,18.73-5.03l780.66-450.71
			c11.56-6.67,18.74-19.11,18.74-32.46s-7.18-25.79-18.74-32.46L128.41,16.83C122.71,13.53,116.24,11.79,109.68,11.79L109.68,11.79z
			"/>
	</g>
	<g>
		<path class="st0" d="M250.96,198.65c-1.18-26.74,14.61-36.75,32.94-44.97c3.68-1.65,7.38-3.2,11.1-4.67l-19.8-11.43
			c-69.79,29.53-127.38,81.4-171.83,157.46v41.56c25.15-56.36,61.41-105.33,104.91-137.46c14.83-10.95,28.23-11.04,42.4-0.43
			c0-0.07,0.01-0.14,0.02-0.22C250.78,198.54,250.87,198.59,250.96,198.65z"/>
		<path class="st0" d="M224.63,108.38L113.15,44.02c-4.35-2.51-9.78,0.63-9.78,5.65V214C138.21,168.16,178.94,133.37,224.63,108.38z
			"/>
		<path class="st0" d="M250.7,198.49c0,0,0.03,0.05,0.07,0.12L250.7,198.49z"/>
		<path class="st0" d="M223.1,884.33c14.98-36.62,28.89-73.47,38.15-112.82c13.68-58.09,5.77-115.15-1.08-172.92
			c-7.03-59.34-9.89-118.87,22.52-171.72c3.78-6.17,7.87-12.18,12.4-17.63c6.77-8.16,15.08-11.02,23.67-4.32
			c8.86,6.91,9.79,17.67,3.94,26.64c-39.95,61.19-29.61,131.3-21.34,197.58c10.53,84.46-5.71,161.13-31.32,236.25l43.6-25.17
			c16.25-54.89,23.53-112.02,20.64-171.43c-2.27-46.6-9.99-92.87-11.91-139.47c-2.6-63.14,25.84-102.64,74.39-108.98
			c41.66-5.44,77.93,28.85,89.11,86.58c6.69,34.54,10.67,69.73,9.56,105.38c0,12.65,0.27,25.3-0.07,37.93
			c-0.41,15.03,1.27,34.1-16.72,35.34c-19.47,1.34-21.52-18.64-22.35-34.96c-1.49-29-1.21-58.13-1.69-87.2
			c-0.33-20.25-0.82-40.38-6.97-59.83c-8.74-27.63-23.6-47.75-50.87-42.77c-27.68,5.05-41.56,27.03-39.53,59.68
			c2.9,46.6,5.34,93.34,10.56,139.64c6.2,54.93-0.57,106.53-13.4,156.57l28.06-16.2c22.96-84,17.16-168.68,6.27-253.92
			c-2.39-18.7-15.64-49.1,12.07-53.45c26.04-4.09,23.32,28.88,25.82,47.88c5.57,42.28,7.7,85.17,11.24,127.81
			c-0.04,36.24-4.95,71.48-11.53,106.35l28.84-16.65c0.33-3.39,0.64-6.8,0.89-10.21c0.88-11.69,4.42-23.85,17.18-22.92
			c8.62,0.63,12.51,6.73,14.32,14.43l31.74-18.33c3.17-58.67,2.46-117.73,0.96-176.88c-0.58-23-3.92-45.34-11.06-66.71
			c-20.27-60.7-65.56-88.15-130.67-79.94c-12.4,1.56-29.03,10.16-32.61-11.72c-3.18-19.43,13.14-23.7,25.6-28.12
			c73.71-26.12,154.13,28.46,175.64,119.3c3.17,13.37,5.24,27.15,7.02,40.88c4.87,37.53,8.95,75.16,7.39,113.34
			c-0.5,22.45-1.48,44.83-2.94,67.14l27.21-15.71c1.28-69.28-4.66-137.99-16.29-206.55c-1.05-6.2-2.25-12.39-2.81-18.66
			c-1.08-12.08,0.49-23.85,11.92-27.97c13.66-4.93,20.17,6.18,24.5,18.54c12.52,35.75,14.07,73.93,16.67,111.59
			c1.82,26.38,0.35,53.07,0.35,79.62c0.19,7.81,0.31,15.62,0.34,23.41l25.48-14.71c-0.19-12.75-0.52-25.5-0.99-38.26
			c-1.57-42.83-5.68-85.62-10.13-128.23c-8.55-81.83-45.11-143.68-104.34-188.6c-3.67-2.78-7.43-5.41-10.98-8.38
			c-4.32-3.61-8.09-7.63-10.26-12.18L473.38,252c-4.07,3.55-9.55,4.96-15.48,4.68c-20.76-0.98-41.47-3.96-62.23-4.34
			c-137.7-2.5-247.5,153.79-223.78,301.84c11.34,70.76,18.52,142.49,0.22,213.66c-4.34,16.9-9.29,33.69-15.16,49.95
			c-5.13,14.2-11.85,29.9-28.85,21.19c-14.41-7.38-11.64-22.49-7.27-36.14c25-77.97,24.59-156.17,13.26-238.28
			c-25.62-185.73,96.56-351.13,258.96-358.95l-46.03-26.58c-16.53,3.45-32.93,8.79-49.15,16.41c-15.62,7.34-30.72,13.44-46.91,3.19
			c0,0.09,0,0.18,0.01,0.27l0,0c-0.1-0.07-0.19-0.14-0.29-0.21c-1.38,21.36-15.14,32.2-27.99,44.01
			c-95.11,87.43-130.73,200.92-112.67,338.61c6.9,52.61,7.54,105.59-2.43,157.95c-1.18,6.19-2.17,13.5-4.22,19.7v191.36
			c0,5.02,5.43,8.15,9.78,5.65l106.58-61.53C220.53,891.18,221.69,887.79,223.1,884.33z M408.72,280.08
			c56.18-2.9,106.09,24.94,147.12,75.35c11.25,13.82,31.93,30.34,13.58,50.26c-17.56,19.06-29.92-5.99-39.26-19.13
			c-77.73-109.35-252.01-80.61-292.77,76.96c-9.92,38.34-8.54,77.56,0.49,116.07c8.47,36.1,9.41,72.37,3.57,108.89
			c-2.05,12.81-6.52,26.12-20.55,24.4c-13.73-1.68-18.16-15.81-15.89-28.46c9.01-50.32-5.6-97.11-12.21-145.59
			C174.6,405.36,278.62,279.55,408.72,280.08z M174.43,882.96c-6.8-3.1-10.8-10.16-9.83-17.83c4.45-35.16,16.42-67.24,33.19-96.81
			c2.5-4.4,9.07-5.74,11.83-7.36c12.89,1.64,20.14,9.09,18.25,20.07c-5.97,34.73-18.03,66.97-35.96,95.89
			C187.96,883.29,181.38,886.13,174.43,882.96z"/>
		<path class="st0" d="M893.15,494.35l-94.92-54.8c2.81,19.09,4.21,38.2,4.05,57.16c-0.37,10.39-2.62,26.98-19.08,28.93
			c-18.7,2.22-23.54-14.42-25-32.12c-2.47-29.93-6.74-58.05-12.73-84.44l-21.04-12.14c12.17,47.22,16.06,97.27,14.15,149.74
			c-0.14,3.78-0.18,7.7-1.09,11.28c-4.08,16.2-3.39,40.17-25.23,35.99c-19.61-3.75-14.62-25.62-13.06-40.88
			c7.08-69.38-3.56-132.1-25.74-185.56l-47.04-27.16c4.3,7.22,8.41,14.64,12.35,22.25c24.72,47.67,35.95,100.47,40.19,155.03
			c2.72,35.01,4.06,70.18,5.62,108.41l208.56-120.41C897.5,503.14,897.5,496.86,893.15,494.35z"/>
	</g>
</g>
</svg>
