<?xml version="1.0" encoding="utf-8"?>
<!-- Generator: Adobe Illustrator 23.1.0, SVG Export Plug-In . SVG Version: 6.00 Build 0)  -->
<svg version="1.1" id="Layer_1" xmlns="http://www.w3.org/2000/svg" xmlns:xlink="http://www.w3.org/1999/xlink" x="0px" y="0px"
	 viewBox="0 0 1000 1000" style="enable-background:new 0 0 1000 1000;" xml:space="preserve">
<style type="text/css">
	.st0{fill:#FFFFFF;}
</style>
<path d="M907.23,979.5H92.77C53.13,979.5,21,947.37,21,907.73V93.27C21,53.63,53.13,21.5,92.77,21.5h814.47
	c39.64,0,71.77,32.13,71.77,71.77v814.47C979,947.37,946.87,979.5,907.23,979.5z"/>
<g>
	<g>
		<g>
			<path class="st0" d="M882.58,772c-16.9,0-37.93-3.7-62.51-11.01c-24.78-7.36-47.53-21.28-67.62-41.37
				c-40.91-40.91-66.1-94.71-74.85-159.89l-42.93-313.17L487.71,578.66c-12.86,28.02-20.97,51.89-24.11,70.99
				c-0.45,2.75-2.8,4.75-5.58,4.75h-3.03c-2.2,0-4.22-1.29-5.15-3.3L267.02,253.7l-30.99,350.2c-0.89,7.5,1.35,13.87,6.84,19.56
				c5.54,5.77,11.4,8.57,17.92,8.57h8.79c3.12,0,5.66,2.54,5.66,5.66v0.88c0,3.12-2.54,5.66-5.66,5.66H134.4
				c-3.12,0-5.66-2.54-5.66-5.66v-1.6c0-3.12,2.54-5.66,5.66-5.66h8.79c12.34,0,23.34-3.82,32.71-11.35
				c9.29-7.49,15.17-17.5,17.48-29.77l45.63-395.45c-41.8-81.81-92.35-123.29-150.26-123.29c-4.24,0-8.77,0.16-13.46,0.49
				c-0.13,0.01-0.27,0.01-0.4,0.01c-1.5,0-2.92-0.58-3.99-1.63c-1.09-1.07-1.69-2.5-1.69-4.02v-2.01c0-2.61,1.77-4.87,4.3-5.5
				c12.28-3.06,22.54-4.62,30.48-4.62c8.25,0,17.36,0.37,27.07,1.1c9.82,0.74,21.5,3.09,34.71,7.01
				c13.27,3.94,25.98,9.79,37.76,17.4c11.73,7.58,22.11,15.5,30.87,23.52c8.75,8.02,17.16,17.05,24.98,26.82
				c13.16,17.54,23.76,34.55,31.55,50.63L463.3,553.97l191.98-430.39c0.91-2.04,2.94-3.36,5.17-3.36h2.28
				c2.81,0,5.16,2.01,5.59,4.78l67.14,427.38c10.03,66.87,31.88,118.13,64.94,152.38c32.92,34.11,72.9,51.4,118.83,51.4
				c1.81,0,3.66-0.03,5.5-0.08l0.17,0c3.24,0,5.88,2.62,5.88,5.85v1.85c0,2.83-2.11,5.25-4.9,5.62
				C912.86,771.13,898.29,772,882.58,772z"/>
			<path d="M103.99,57c8.24,0,17.17,0.36,26.86,1.09c9.68,0.73,21.05,3.03,34.12,6.9c13.07,3.88,25.41,9.56,37.02,17.06
				c11.62,7.51,21.78,15.24,30.49,23.23c8.71,7.99,16.93,16.82,24.68,26.5c13.07,17.42,23.47,34.12,31.22,50.09l172.34,373.29
				c0.51,1.1,1.54,1.64,2.57,1.64c1.04,0,2.09-0.56,2.58-1.68l192-430.39c0.45-1.02,1.47-1.68,2.58-1.68h2.28
				c1.39,0,2.58,1.01,2.79,2.39l67.14,427.38c10.16,67.76,32.06,119.06,65.7,153.91c33.63,34.84,73.93,52.27,120.87,52.27
				c1.85,0,3.71-0.03,5.58-0.08c0.03,0,0.06,0,0.09,0c1.67,0,3.04,1.33,3.04,3.01v1.85c0,1.42-1.04,2.63-2.44,2.81
				c-12.92,1.71-27.23,2.57-42.93,2.57c-16.7,0-37.27-3.63-61.71-10.89c-24.44-7.26-46.59-20.81-66.43-40.65
				c-40.65-40.65-65.34-93.4-74.05-158.26l-42.93-313.18c-0.22-1.58-1.52-2.45-2.82-2.45c-1.03,0-2.06,0.54-2.57,1.69L485.12,577.52
				c-13.02,28.36-21.12,52.25-24.31,71.67c-0.23,1.37-1.39,2.37-2.78,2.37h-3.03c-1.1,0-2.11-0.64-2.57-1.65L269.6,252.52
				c-0.52-1.13-1.53-1.65-2.55-1.65c-1.35,0-2.7,0.93-2.84,2.58l-31,350.2c-0.98,8.23,1.57,15.49,7.62,21.78
				c6.05,6.3,12.7,9.44,19.96,9.44h8.79c1.56,0,2.83,1.27,2.83,2.83v0.88c0,1.56-1.27,2.83-2.83,2.83H134.4
				c-1.56,0-2.83-1.27-2.83-2.83v-1.6c0-1.56,1.27-2.83,2.83-2.83h8.79c13.07,0,24.56-3.99,34.48-11.98
				c9.88-7.96,16.04-18.44,18.49-31.45c0.02-0.08,0.03-0.17,0.04-0.26l45.62-395.39c0.06-0.56-0.04-1.13-0.3-1.63
				C199.01,110.22,148.09,68.62,88.74,68.62c-4.38,0-8.94,0.17-13.65,0.5c-0.07,0-0.13,0.01-0.2,0.01c-1.55,0-2.84-1.24-2.84-2.82
				v-2.01c0-1.3,0.89-2.44,2.15-2.75C86.28,58.52,96.22,57,103.99,57 M103.99,51.33c-8.29,0-18.48,1.54-31.17,4.7
				c-3.8,0.95-6.45,4.34-6.45,8.25v2.01c0,4.68,3.82,8.49,8.51,8.49c0.2,0,0.4-0.01,0.6-0.02c4.62-0.32,9.08-0.48,13.26-0.48
				c56.58,0,106.16,40.7,147.35,120.98l-45.52,394.47c-2.21,11.71-7.6,20.88-16.46,28.01c-8.97,7.22-19.09,10.72-30.93,10.72h-8.79
				c-4.69,0-8.5,3.81-8.5,8.5v1.6c0,4.69,3.81,8.5,8.5,8.5h135.18c4.69,0,8.5-3.81,8.5-8.5v-0.88c0-4.69-3.81-8.5-8.5-8.5h-8.79
				c-5.71,0-10.9-2.52-15.87-7.7c-4.87-5.05-6.85-10.67-6.08-17.18l0.01-0.08l0.01-0.08l30.06-339.55l178.35,387.69
				c1.38,3,4.41,4.95,7.72,4.95h3.03c4.18,0,7.7-3,8.38-7.12c3.1-18.84,11.13-42.47,23.87-70.23l0.02-0.04l0.02-0.04l142.91-322.93
				l41.57,303.26c4.41,32.83,13,63.07,25.53,89.84c12.56,26.85,29.43,50.96,50.13,71.66c20.43,20.43,43.58,34.58,68.82,42.08
				c24.85,7.38,46.15,11.12,63.32,11.12c15.83,0,30.52-0.88,43.67-2.62c4.2-0.55,7.37-4.18,7.37-8.43v-1.85
				c0-4.79-3.91-8.68-8.71-8.68c-0.08,0-0.16,0-0.24,0c-1.82,0.05-3.64,0.08-5.43,0.08c-45.13,0-84.43-17-116.79-50.54
				c-32.65-33.81-54.24-84.55-64.17-150.81l-67.15-427.42c-0.65-4.16-4.18-7.18-8.39-7.18h-2.28c-3.35,0-6.4,1.98-7.76,5.04
				L463.25,547.1L293.53,179.49l-0.02-0.05l-0.02-0.05c-7.88-16.24-18.57-33.4-31.78-51.02l-0.05-0.07l-0.06-0.07
				c-7.91-9.88-16.42-19.01-25.28-27.13c-8.88-8.14-19.39-16.15-31.24-23.81c-12.01-7.75-24.96-13.72-38.49-17.73
				c-13.41-3.97-25.29-6.36-35.31-7.11C121.49,51.7,112.31,51.33,103.99,51.33L103.99,51.33z"/>
		</g>
	</g>
	<g>
		<g>
			<path class="st0" d="M179.68,944.42c-10.39,0-21.49-1.26-33-3.76c-2.29-0.5-3.81-2.78-3.38-5.09l0.28-1.5
				c0.38-2.07,2.2-3.57,4.33-3.57c0.26,0,0.53,0.02,0.79,0.07c5.88,1.05,12.58,1.58,19.93,1.58c8.49,0,20.03-2.9,34.31-8.61
				c14.24-5.7,28.61-16.09,42.71-30.88c28.54-29.98,50.87-68.08,66.35-113.23c0.11-0.32,0.11-0.68,0.01-1.01L176.99,364.85
				c-5.21-14.1-13.37-24.98-24.23-32.29c-10.88-7.31-22.11-11.01-33.38-11.01h-2.4c-2.42,0-4.38-1.97-4.38-4.38v-1.33
				c0-2.42,1.97-4.38,4.38-4.38h142.8c2.42,0,4.38,1.97,4.38,4.38v1.33c0,2.42-1.97,4.38-4.38,4.38h-3.07
				c-8.98,0-15.51,3.01-19.95,9.21c-4.49,6.26-6.77,12.21-6.77,17.69c0,5.66,0.66,10.91,1.96,15.59L331,707.86
				c0.3,1.04,1.21,1.12,1.49,1.12c0.27,0,1.17-0.08,1.48-1.1l121-404.64c0.55-1.84,2.28-3.13,4.2-3.13c0.17,0,0.35,0.01,0.53,0.03
				l1.68,0.2c1.68,0.2,3.11,1.37,3.64,2.98l129,391.09c0.33,0.99,1.2,1.06,1.47,1.06l0,0c0.57,0,1.26-0.3,1.49-1.13l96.55-349.91
				c11.6-42.06,29.7-80.55,53.81-114.42c22.34-31.72,48.08-55.86,76.5-71.74c28.44-15.9,60.35-23.96,94.83-23.96h5.75
				c2.42,0,4.38,1.97,4.38,4.38v1.51c0,2.29-1.81,4.21-4.11,4.36c-19.68,1.28-38.62,6.55-56.28,15.66
				c-18.55,9.58-34.43,21.09-47.2,34.21c-12.83,13.19-24.94,29.34-35.97,48.01c-17.75,29.81-33.03,64.39-45.43,102.8L611.14,749.6
				c-8.5,28.98-13.39,55.03-14.55,77.42c-0.12,2.33-2.04,4.15-4.36,4.15h-1.06c-1.9,0-3.57-1.21-4.16-3.01L453.98,424.69
				c-0.32-0.99-1.2-1.06-1.47-1.06c-0.56,0-1.24,0.29-1.49,1.11L345.85,781.51c-16.08,54.7-42.38,97.92-78.15,128.45
				C241.65,932.82,212.03,944.42,179.68,944.42z"/>
			<path d="M924.39,135.73c1.64,0,2.96,1.33,2.96,2.96v1.51c0,1.57-1.22,2.84-2.79,2.94c-19.97,1.3-38.91,6.57-56.84,15.82
				c-18.76,9.69-34.62,21.18-47.57,34.48c-12.96,13.32-25.02,29.4-36.18,48.28c-17.87,30.01-33.06,64.37-45.56,103.09L609.79,749.17
				c-8.58,29.27-13.45,55.19-14.61,77.77c-0.08,1.58-1.37,2.81-2.95,2.81h-1.06c-1.28,0-2.41-0.82-2.81-2.04L455.33,424.24
				c-0.45-1.36-1.63-2.04-2.81-2.04c-1.21,0-2.43,0.71-2.85,2.13L344.49,781.11c-16.08,54.69-41.99,97.28-77.71,127.77
				C240.87,931.62,211.84,943,179.68,943c-10.33,0-21.23-1.24-32.7-3.73c-1.56-0.34-2.58-1.88-2.29-3.45l0.28-1.5
				c0.26-1.44,1.52-2.41,2.93-2.41c0.18,0,0.36,0.02,0.54,0.05c5.99,1.07,12.72,1.6,20.18,1.6c8.71,0,20.32-2.9,34.84-8.71
				c14.51-5.81,28.91-16.22,43.21-31.22c28.83-30.28,51.05-68.2,66.67-113.75c0.21-0.62,0.22-1.29,0.01-1.91L178.34,364.41
				c-5.36-14.52-13.63-25.52-24.79-33.03c-11.17-7.5-22.56-11.25-34.17-11.25h-2.4c-1.64,0-2.96-1.33-2.96-2.96v-1.33
				c0-1.64,1.33-2.96,2.96-2.96h142.8c1.64,0,2.96,1.33,2.96,2.96v1.33c0,1.64-1.33,2.96-2.96,2.96h-3.07
				c-9.38,0-16.41,3.27-21.1,9.8c-4.69,6.53-7.03,12.71-7.03,18.51c0,5.81,0.67,11.14,2.01,15.97l99.04,343.84
				c0.41,1.43,1.63,2.14,2.85,2.14c1.21,0,2.42-0.7,2.84-2.11l121-404.64c0.38-1.27,1.54-2.11,2.84-2.11c0.12,0,0.24,0.01,0.36,0.02
				l1.68,0.2c1.14,0.14,2.1,0.92,2.46,2.01l129,391.1c0.45,1.36,1.63,2.04,2.81,2.04c1.23,0,2.46-0.73,2.86-2.18l96.55-349.91
				c11.61-42.11,29.48-80.09,53.6-113.98c44.66-63.4,101.38-95.1,170.17-95.1H924.39 M924.39,132.89h-5.74
				c-34.72,0-66.86,8.12-95.52,24.14c-28.6,15.99-54.5,40.27-76.97,72.17c-24.2,33.99-42.37,72.64-54.01,114.86L595.6,693.96
				c-0.02,0.06-0.03,0.07-0.03,0.08c-0.01,0-0.04,0.02-0.1,0.02c-0.05,0-0.08-0.01-0.09-0.02l0,0c0,0-0.01-0.02-0.03-0.07
				l-129-391.1c-0.7-2.13-2.59-3.67-4.81-3.94l-1.68-0.2c-0.23-0.03-0.46-0.04-0.69-0.04c-2.54,0-4.82,1.7-5.55,4.14l-121,404.64
				c-0.02,0.06-0.03,0.08-0.03,0.08c0,0-0.04,0.02-0.09,0.02c-0.05,0-0.09-0.01-0.1-0.02c0,0-0.01-0.02-0.03-0.07l-99.04-343.84
				c-1.26-4.53-1.9-9.65-1.9-15.19c0-5.18,2.19-10.85,6.5-16.86c4.16-5.8,10.31-8.62,18.8-8.62h3.07c3.2,0,5.8-2.6,5.8-5.8v-1.33
				c0-3.2-2.6-5.8-5.8-5.8h-142.8c-3.2,0-5.8,2.6-5.8,5.8v1.33c0,3.2,2.6,5.8,5.8,5.8h2.4c10.98,0,21.94,3.62,32.59,10.77
				c10.6,7.13,18.57,17.77,23.69,31.61l135,413.52c0.01,0.03,0.01,0.07,0,0.11c-15.42,44.96-37.64,82.88-66.04,112.71
				c-13.96,14.64-28.16,24.91-42.21,30.54c-14.11,5.65-25.48,8.51-33.78,8.51c-7.26,0-13.89-0.52-19.68-1.56
				c-0.34-0.06-0.69-0.09-1.04-0.09c-2.81,0-5.21,1.99-5.72,4.73l-0.28,1.5c-0.56,3.06,1.44,6.08,4.47,6.73
				c11.61,2.51,22.81,3.79,33.3,3.79c32.71,0,62.64-11.72,88.96-34.82c35.96-30.69,62.4-74.13,78.56-129.1l105.18-356.78
				c0.02-0.05,0.03-0.07,0.03-0.07c0.01,0,0.04-0.02,0.1-0.02c0.05,0,0.08,0.01,0.09,0.02c0,0,0.01,0.02,0.03,0.07L585.66,828.6
				c0.79,2.38,3,3.98,5.51,3.98h1.06c3.08,0,5.62-2.42,5.78-5.5c1.15-22.26,6.02-48.2,14.49-77.09l128.62-404.33
				c12.36-38.3,27.6-72.79,45.29-102.5c10.98-18.58,23.02-34.64,35.77-47.75c12.66-13.01,28.42-24.43,46.84-33.94
				c17.49-9.02,36.24-14.24,55.72-15.51c3.05-0.2,5.44-2.73,5.44-5.77v-1.51C930.19,135.49,927.59,132.89,924.39,132.89
				L924.39,132.89z"/>
		</g>
	</g>
</g>
</svg>
